<svg aria-roledescription="flowchart-v2" role="graphics-document document" viewBox="-8 -8 276.109375 902" style="max-width: 276.109px; background-color: white;" xmlns:xlink="http://www.w3.org/1999/xlink" xmlns="http://www.w3.org/2000/svg" width="100%" id="my-svg"><style>#my-svg{font-family:"trebuchet ms",verdana,arial,sans-serif;font-size:16px;fill:#333;}#my-svg .error-icon{fill:#552222;}#my-svg .error-text{fill:#552222;stroke:#552222;}#my-svg .edge-thickness-normal{stroke-width:2px;}#my-svg .edge-thickness-thick{stroke-width:3.5px;}#my-svg .edge-pattern-solid{stroke-dasharray:0;}#my-svg .edge-pattern-dashed{stroke-dasharray:3;}#my-svg .edge-pattern-dotted{stroke-dasharray:2;}#my-svg .marker{fill:#333333;stroke:#333333;}#my-svg .marker.cross{stroke:#333333;}#my-svg svg{font-family:"trebuchet ms",verdana,arial,sans-serif;font-size:16px;}#my-svg .label{font-family:"trebuchet ms",verdana,arial,sans-serif;color:#333;}#my-svg .cluster-label text{fill:#333;}#my-svg .cluster-label span,#my-svg p{color:#333;}#my-svg .label text,#my-svg span,#my-svg p{fill:#333;color:#333;}#my-svg .node rect,#my-svg .node circle,#my-svg .node ellipse,#my-svg .node polygon,#my-svg .node path{fill:#ECECFF;stroke:#9370DB;stroke-width:1px;}#my-svg .flowchart-label text{text-anchor:middle;}#my-svg .node .katex path{fill:#000;stroke:#000;stroke-width:1px;}#my-svg .node .label{text-align:center;}#my-svg .node.clickable{cursor:pointer;}#my-svg .arrowheadPath{fill:#333333;}#my-svg .edgePath .path{stroke:#333333;stroke-width:2.0px;}#my-svg .flowchart-link{stroke:#333333;fill:none;}#my-svg .edgeLabel{background-color:#e8e8e8;text-align:center;}#my-svg .edgeLabel rect{opacity:0.5;background-color:#e8e8e8;fill:#e8e8e8;}#my-svg .labelBkg{background-color:rgba(232, 232, 232, 0.5);}#my-svg .cluster rect{fill:#ffffde;stroke:#aaaa33;stroke-width:1px;}#my-svg .cluster text{fill:#333;}#my-svg .cluster span,#my-svg p{color:#333;}#my-svg div.mermaidTooltip{position:absolute;text-align:center;max-width:200px;padding:2px;font-family:"trebuchet ms",verdana,arial,sans-serif;font-size:12px;background:hsl(80, 100%, 96.2745098039%);border:1px solid #aaaa33;border-radius:2px;pointer-events:none;z-index:100;}#my-svg .flowchartTitleText{text-anchor:middle;font-size:18px;fill:#333;}#my-svg :root{--mermaid-font-family:"trebuchet ms",verdana,arial,sans-serif;}</style><g><marker orient="auto" markerHeight="12" markerWidth="12" markerUnits="userSpaceOnUse" refY="5" refX="6" viewBox="0 0 10 10" class="marker flowchart" id="my-svg_flowchart-pointEnd"><path style="stroke-width: 1; stroke-dasharray: 1, 0;" class="arrowMarkerPath" d="M 0 0 L 10 5 L 0 10 z"/></marker><marker orient="auto" markerHeight="12" markerWidth="12" markerUnits="userSpaceOnUse" refY="5" refX="4.5" viewBox="0 0 10 10" class="marker flowchart" id="my-svg_flowchart-pointStart"><path style="stroke-width: 1; stroke-dasharray: 1, 0;" class="arrowMarkerPath" d="M 0 5 L 10 10 L 10 0 z"/></marker><marker orient="auto" markerHeight="11" markerWidth="11" markerUnits="userSpaceOnUse" refY="5" refX="11" viewBox="0 0 10 10" class="marker flowchart" id="my-svg_flowchart-circleEnd"><circle style="stroke-width: 1; stroke-dasharray: 1, 0;" class="arrowMarkerPath" r="5" cy="5" cx="5"/></marker><marker orient="auto" markerHeight="11" markerWidth="11" markerUnits="userSpaceOnUse" refY="5" refX="-1" viewBox="0 0 10 10" class="marker flowchart" id="my-svg_flowchart-circleStart"><circle style="stroke-width: 1; stroke-dasharray: 1, 0;" class="arrowMarkerPath" r="5" cy="5" cx="5"/></marker><marker orient="auto" markerHeight="11" markerWidth="11" markerUnits="userSpaceOnUse" refY="5.2" refX="12" viewBox="0 0 11 11" class="marker cross flowchart" id="my-svg_flowchart-crossEnd"><path style="stroke-width: 2; stroke-dasharray: 1, 0;" class="arrowMarkerPath" d="M 1,1 l 9,9 M 10,1 l -9,9"/></marker><marker orient="auto" markerHeight="11" markerWidth="11" markerUnits="userSpaceOnUse" refY="5.2" refX="-1" viewBox="0 0 11 11" class="marker cross flowchart" id="my-svg_flowchart-crossStart"><path style="stroke-width: 2; stroke-dasharray: 1, 0;" class="arrowMarkerPath" d="M 1,1 l 9,9 M 10,1 l -9,9"/></marker><g class="root"><g class="clusters"/><g class="edgePaths"><path marker-end="url(#my-svg_flowchart-pointEnd)" style="fill:none;" class="edge-thickness-normal edge-pattern-solid flowchart-link LS-user LE-request" id="L-user-request-0" d="M130.055,34L130.055,38.167C130.055,42.333,130.055,50.667,130.055,58.117C130.055,65.567,130.055,72.133,130.055,75.417L130.055,78.7"/><path marker-end="url(#my-svg_flowchart-pointEnd)" style="fill:none;" class="edge-thickness-normal edge-pattern-solid flowchart-link LS-request LE-ui" id="L-request-ui-0" d="M130.055,118L130.055,122.167C130.055,126.333,130.055,134.667,130.055,142.117C130.055,149.567,130.055,156.133,130.055,159.417L130.055,162.7"/><path marker-end="url(#my-svg_flowchart-pointEnd)" style="fill:none;" class="edge-thickness-normal edge-pattern-solid flowchart-link LS-ui LE-api" id="L-ui-api-0" d="M130.055,218L130.055,222.167C130.055,226.333,130.055,234.667,130.055,242.117C130.055,249.567,130.055,256.133,130.055,259.417L130.055,262.7"/><path marker-end="url(#my-svg_flowchart-pointEnd)" style="fill:none;" class="edge-thickness-normal edge-pattern-solid flowchart-link LS-api LE-backend" id="L-api-backend-0" d="M130.055,302L130.055,306.167C130.055,310.333,130.055,318.667,130.055,326.117C130.055,333.567,130.055,340.133,130.055,343.417L130.055,346.7"/><path marker-end="url(#my-svg_flowchart-pointEnd)" style="fill:none;" class="edge-thickness-normal edge-pattern-solid flowchart-link LS-backend LE-sdk" id="L-backend-sdk-0" d="M130.055,402L130.055,406.167C130.055,410.333,130.055,418.667,130.055,426.117C130.055,433.567,130.055,440.133,130.055,443.417L130.055,446.7"/><path marker-end="url(#my-svg_flowchart-pointEnd)" style="fill:none;" class="edge-thickness-normal edge-pattern-solid flowchart-link LS-sdk LE-webhook" id="L-sdk-webhook-0" d="M130.055,534L130.055,538.167C130.055,542.333,130.055,550.667,130.055,558.117C130.055,565.567,130.055,572.133,130.055,575.417L130.055,578.7"/><path marker-end="url(#my-svg_flowchart-pointEnd)" style="fill:none;" class="edge-thickness-normal edge-pattern-solid flowchart-link LS-webhook LE-backendProcess" id="L-webhook-backendProcess-0" d="M130.055,618L130.055,622.167C130.055,626.333,130.055,634.667,130.055,642.117C130.055,649.567,130.055,656.133,130.055,659.417L130.055,662.7"/><path marker-end="url(#my-svg_flowchart-pointEnd)" style="fill:none;" class="edge-thickness-normal edge-pattern-solid flowchart-link LS-backendProcess LE-vault" id="L-backendProcess-vault-0" d="M130.055,702L130.055,706.167C130.055,710.333,130.055,718.667,130.055,726.117C130.055,733.567,130.055,740.133,130.055,743.417L130.055,746.7"/><path marker-end="url(#my-svg_flowchart-pointEnd)" style="fill:none;" class="edge-thickness-normal edge-pattern-solid flowchart-link LS-vault LE-mint" id="L-vault-mint-0" d="M130.055,802L130.055,806.167C130.055,810.333,130.055,818.667,130.055,826.117C130.055,833.567,130.055,840.133,130.055,843.417L130.055,846.7"/></g><g class="edgeLabels"><g class="edgeLabel"><g transform="translate(0, 0)" class="label"><rect height="0" width="0" ry="0" rx="0"/><text style=""><tspan class="row" x="0" dy="1em" xml:space="preserve"/></text></g></g><g class="edgeLabel"><g transform="translate(0, 0)" class="label"><rect height="0" width="0" ry="0" rx="0"/><text style=""><tspan class="row" x="0" dy="1em" xml:space="preserve"/></text></g></g><g class="edgeLabel"><g transform="translate(0, 0)" class="label"><rect height="0" width="0" ry="0" rx="0"/><text style=""><tspan class="row" x="0" dy="1em" xml:space="preserve"/></text></g></g><g class="edgeLabel"><g transform="translate(0, 0)" class="label"><rect height="0" width="0" ry="0" rx="0"/><text style=""><tspan class="row" x="0" dy="1em" xml:space="preserve"/></text></g></g><g class="edgeLabel"><g transform="translate(0, 0)" class="label"><rect height="0" width="0" ry="0" rx="0"/><text style=""><tspan class="row" x="0" dy="1em" xml:space="preserve"/></text></g></g><g class="edgeLabel"><g transform="translate(0, 0)" class="label"><rect height="0" width="0" ry="0" rx="0"/><text style=""><tspan class="row" x="0" dy="1em" xml:space="preserve"/></text></g></g><g class="edgeLabel"><g transform="translate(0, 0)" class="label"><rect height="0" width="0" ry="0" rx="0"/><text style=""><tspan class="row" x="0" dy="1em" xml:space="preserve"/></text></g></g><g class="edgeLabel"><g transform="translate(0, 0)" class="label"><rect height="0" width="0" ry="0" rx="0"/><text style=""><tspan class="row" x="0" dy="1em" xml:space="preserve"/></text></g></g><g class="edgeLabel"><g transform="translate(0, 0)" class="label"><rect height="0" width="0" ry="0" rx="0"/><text style=""><tspan class="row" x="0" dy="1em" xml:space="preserve"/></text></g></g></g><g class="nodes"><g transform="translate(130.0546875, 17)" data-id="user" data-node="true" id="flowchart-user-0" class="node default default flowchart-label"><rect height="34" width="51.890625" y="-17" x="-25.9453125" ry="0" rx="0" style="" class="basic label-container"/><g transform="translate(0, -9.5)" style="" class="label"><rect/><text style=""><tspan class="row" x="0" dy="1em" xml:space="preserve">User</tspan></text></g></g><g transform="translate(130.0546875, 101)" data-id="request" data-node="true" id="flowchart-request-1" class="node default default flowchart-label"><rect height="34" width="260.109375" y="-17" x="-130.0546875" ry="0" rx="0" style="" class="basic label-container"/><g transform="translate(0, -9.5)" style="" class="label"><rect/><text style=""><tspan class="row" x="0" dy="1em" xml:space="preserve">1. Request cross-chain deposit</tspan></text></g></g><g transform="translate(130.0546875, 193)" data-id="ui" data-node="true" id="flowchart-ui-3" class="node default default flowchart-label"><rect height="50" width="217.796875" y="-25" x="-108.8984375" ry="0" rx="0" style="" class="basic label-container"/><g transform="translate(0, -17.5)" style="" class="label"><rect/><text style=""><tspan class="row" x="0" dy="1em" xml:space="preserve">Frontend UI</tspan><tspan class="row" x="0" dy="1em" xml:space="preserve">collects chains + amount</tspan></text></g></g><g transform="translate(130.0546875, 285)" data-id="api" data-node="true" id="flowchart-api-5" class="node default default flowchart-label"><rect height="34" width="187.078125" y="-17" x="-93.5390625" ry="0" rx="0" style="" class="basic label-container"/><g transform="translate(0, -9.5)" style="" class="label"><rect/><text style=""><tspan class="row" x="0" dy="1em" xml:space="preserve">2. API call to backend</tspan></text></g></g><g transform="translate(130.0546875, 377)" data-id="backend" data-node="true" id="flowchart-backend-7" class="node default default flowchart-label"><rect height="50" width="147.640625" y="-25" x="-73.8203125" ry="0" rx="0" style="" class="basic label-container"/><g transform="translate(0, -17.5)" style="" class="label"><rect/><text style=""><tspan class="row" x="0" dy="1em" xml:space="preserve">Backend Service</tspan><tspan class="row" x="0" dy="1em" xml:space="preserve">(Bridge Kit SDK)</tspan></text></g></g><g transform="translate(130.0546875, 493)" data-id="sdk" data-node="true" id="flowchart-sdk-9" class="node default default flowchart-label"><rect height="82" width="214.0859375" y="-41" x="-107.04296875" ry="0" rx="0" style="" class="basic label-container"/><g transform="translate(0, -33.5)" style="" class="label"><rect/><text style=""><tspan class="row" x="0" dy="1em" xml:space="preserve">Bridge Kit SDK</tspan><tspan class="row" x="0" dy="1em" xml:space="preserve">transfer()</tspan><tspan class="row" x="0" dy="1em" xml:space="preserve">- Burns USDC on Chain A</tspan><tspan class="row" x="0" dy="1em" xml:space="preserve">- Polls attestation</tspan></text></g></g><g transform="translate(130.0546875, 601)" data-id="webhook" data-node="true" id="flowchart-webhook-11" class="node default default flowchart-label"><rect height="34" width="245.4921875" y="-17" x="-122.74609375" ry="0" rx="0" style="" class="basic label-container"/><g transform="translate(0, -9.5)" style="" class="label"><rect/><text style=""><tspan class="row" x="0" dy="1em" xml:space="preserve">CCTP attestation + webhook</tspan></text></g></g><g transform="translate(130.0546875, 685)" data-id="backendProcess" data-node="true" id="flowchart-backendProcess-13" class="node default default flowchart-label"><rect height="34" width="246.0546875" y="-17" x="-123.02734375" ry="0" rx="0" style="" class="basic label-container"/><g transform="translate(0, -9.5)" style="" class="label"><rect/><text style=""><tspan class="row" x="0" dy="1em" xml:space="preserve">Backend processes webhook</tspan></text></g></g><g transform="translate(130.0546875, 777)" data-id="vault" data-node="true" id="flowchart-vault-15" class="node default default flowchart-label"><rect height="50" width="179.859375" y="-25" x="-89.9296875" ry="0" rx="0" style="" class="basic label-container"/><g transform="translate(0, -17.5)" style="" class="label"><rect/><text style=""><tspan class="row" x="0" dy="1em" xml:space="preserve">USDXVault (Chain B)</tspan><tspan class="row" x="0" dy="1em" xml:space="preserve">Receives USDC</tspan></text></g></g><g transform="translate(130.0546875, 869)" data-id="mint" data-node="true" id="flowchart-mint-17" class="node default default flowchart-label"><rect height="34" width="169.7890625" y="-17" x="-84.89453125" ry="0" rx="0" style="" class="basic label-container"/><g transform="translate(0, -9.5)" style="" class="label"><rect/><text style=""><tspan class="row" x="0" dy="1em" xml:space="preserve">Mints USDX to user</tspan></text></g></g></g></g></g></svg>