<svg aria-roledescription="flowchart-v2" role="graphics-document document" viewBox="-8 -8 303.046875 854" style="max-width: 303.047px; background-color: white;" xmlns:xlink="http://www.w3.org/1999/xlink" xmlns="http://www.w3.org/2000/svg" width="100%" id="my-svg"><style>#my-svg{font-family:"trebuchet ms",verdana,arial,sans-serif;font-size:16px;fill:#333;}#my-svg .error-icon{fill:#552222;}#my-svg .error-text{fill:#552222;stroke:#552222;}#my-svg .edge-thickness-normal{stroke-width:2px;}#my-svg .edge-thickness-thick{stroke-width:3.5px;}#my-svg .edge-pattern-solid{stroke-dasharray:0;}#my-svg .edge-pattern-dashed{stroke-dasharray:3;}#my-svg .edge-pattern-dotted{stroke-dasharray:2;}#my-svg .marker{fill:#333333;stroke:#333333;}#my-svg .marker.cross{stroke:#333333;}#my-svg svg{font-family:"trebuchet ms",verdana,arial,sans-serif;font-size:16px;}#my-svg .label{font-family:"trebuchet ms",verdana,arial,sans-serif;color:#333;}#my-svg .cluster-label text{fill:#333;}#my-svg .cluster-label span,#my-svg p{color:#333;}#my-svg .label text,#my-svg span,#my-svg p{fill:#333;color:#333;}#my-svg .node rect,#my-svg .node circle,#my-svg .node ellipse,#my-svg .node polygon,#my-svg .node path{fill:#ECECFF;stroke:#9370DB;stroke-width:1px;}#my-svg .flowchart-label text{text-anchor:middle;}#my-svg .node .katex path{fill:#000;stroke:#000;stroke-width:1px;}#my-svg .node .label{text-align:center;}#my-svg .node.clickable{cursor:pointer;}#my-svg .arrowheadPath{fill:#333333;}#my-svg .edgePath .path{stroke:#333333;stroke-width:2.0px;}#my-svg .flowchart-link{stroke:#333333;fill:none;}#my-svg .edgeLabel{background-color:#e8e8e8;text-align:center;}#my-svg .edgeLabel rect{opacity:0.5;background-color:#e8e8e8;fill:#e8e8e8;}#my-svg .labelBkg{background-color:rgba(232, 232, 232, 0.5);}#my-svg .cluster rect{fill:#ffffde;stroke:#aaaa33;stroke-width:1px;}#my-svg .cluster text{fill:#333;}#my-svg .cluster span,#my-svg p{color:#333;}#my-svg div.mermaidTooltip{position:absolute;text-align:center;max-width:200px;padding:2px;font-family:"trebuchet ms",verdana,arial,sans-serif;font-size:12px;background:hsl(80, 100%, 96.2745098039%);border:1px solid #aaaa33;border-radius:2px;pointer-events:none;z-index:100;}#my-svg .flowchartTitleText{text-anchor:middle;font-size:18px;fill:#333;}#my-svg :root{--mermaid-font-family:"trebuchet ms",verdana,arial,sans-serif;}</style><g><marker orient="auto" markerHeight="12" markerWidth="12" markerUnits="userSpaceOnUse" refY="5" refX="6" viewBox="0 0 10 10" class="marker flowchart" id="my-svg_flowchart-pointEnd"><path style="stroke-width: 1; stroke-dasharray: 1, 0;" class="arrowMarkerPath" d="M 0 0 L 10 5 L 0 10 z"/></marker><marker orient="auto" markerHeight="12" markerWidth="12" markerUnits="userSpaceOnUse" refY="5" refX="4.5" viewBox="0 0 10 10" class="marker flowchart" id="my-svg_flowchart-pointStart"><path style="stroke-width: 1; stroke-dasharray: 1, 0;" class="arrowMarkerPath" d="M 0 5 L 10 10 L 10 0 z"/></marker><marker orient="auto" markerHeight="11" markerWidth="11" markerUnits="userSpaceOnUse" refY="5" refX="11" viewBox="0 0 10 10" class="marker flowchart" id="my-svg_flowchart-circleEnd"><circle style="stroke-width: 1; stroke-dasharray: 1, 0;" class="arrowMarkerPath" r="5" cy="5" cx="5"/></marker><marker orient="auto" markerHeight="11" markerWidth="11" markerUnits="userSpaceOnUse" refY="5" refX="-1" viewBox="0 0 10 10" class="marker flowchart" id="my-svg_flowchart-circleStart"><circle style="stroke-width: 1; stroke-dasharray: 1, 0;" class="arrowMarkerPath" r="5" cy="5" cx="5"/></marker><marker orient="auto" markerHeight="11" markerWidth="11" markerUnits="userSpaceOnUse" refY="5.2" refX="12" viewBox="0 0 11 11" class="marker cross flowchart" id="my-svg_flowchart-crossEnd"><path style="stroke-width: 2; stroke-dasharray: 1, 0;" class="arrowMarkerPath" d="M 1,1 l 9,9 M 10,1 l -9,9"/></marker><marker orient="auto" markerHeight="11" markerWidth="11" markerUnits="userSpaceOnUse" refY="5.2" refX="-1" viewBox="0 0 11 11" class="marker cross flowchart" id="my-svg_flowchart-crossStart"><path style="stroke-width: 2; stroke-dasharray: 1, 0;" class="arrowMarkerPath" d="M 1,1 l 9,9 M 10,1 l -9,9"/></marker><g class="root"><g class="clusters"/><g class="edgePaths"><path marker-end="url(#my-svg_flowchart-pointEnd)" style="fill:none;" class="edge-thickness-normal edge-pattern-solid flowchart-link LS-user LE-init" id="L-user-init-0" d="M143.523,34L143.523,38.167C143.523,42.333,143.523,50.667,143.523,58.117C143.523,65.567,143.523,72.133,143.523,75.417L143.523,78.7"/><path marker-end="url(#my-svg_flowchart-pointEnd)" style="fill:none;" class="edge-thickness-normal edge-pattern-solid flowchart-link LS-init LE-ui" id="L-init-ui-0" d="M143.523,118L143.523,122.167C143.523,126.333,143.523,134.667,143.523,142.117C143.523,149.567,143.523,156.133,143.523,159.417L143.523,162.7"/><path marker-end="url(#my-svg_flowchart-pointEnd)" style="fill:none;" class="edge-thickness-normal edge-pattern-solid flowchart-link LS-ui LE-sdk" id="L-ui-sdk-0" d="M143.523,202L143.523,206.167C143.523,210.333,143.523,218.667,143.523,226.117C143.523,233.567,143.523,240.133,143.523,243.417L143.523,246.7"/><path marker-end="url(#my-svg_flowchart-pointEnd)" style="fill:none;" class="edge-thickness-normal edge-pattern-solid flowchart-link LS-sdk LE-cctp" id="L-sdk-cctp-0" d="M143.523,302L143.523,306.167C143.523,310.333,143.523,318.667,143.523,326.117C143.523,333.567,143.523,340.133,143.523,343.417L143.523,346.7"/><path marker-end="url(#my-svg_flowchart-pointEnd)" style="fill:none;" class="edge-thickness-normal edge-pattern-solid flowchart-link LS-cctp LE-hub" id="L-cctp-hub-0" d="M143.523,402L143.523,406.167C143.523,410.333,143.523,418.667,143.523,426.117C143.523,433.567,143.523,440.133,143.523,443.417L143.523,446.7"/><path marker-end="url(#my-svg_flowchart-pointEnd)" style="fill:none;" class="edge-thickness-normal edge-pattern-solid flowchart-link LS-hub LE-vault" id="L-hub-vault-0" d="M143.523,486L143.523,490.167C143.523,494.333,143.523,502.667,143.523,510.117C143.523,517.567,143.523,524.133,143.523,527.417L143.523,530.7"/><path marker-end="url(#my-svg_flowchart-pointEnd)" style="fill:none;" class="edge-thickness-normal edge-pattern-solid flowchart-link LS-vault LE-callback" id="L-vault-callback-0" d="M143.523,586L143.523,590.167C143.523,594.333,143.523,602.667,143.523,610.117C143.523,617.567,143.523,624.133,143.523,627.417L143.523,630.7"/><path marker-end="url(#my-svg_flowchart-pointEnd)" style="fill:none;" class="edge-thickness-normal edge-pattern-solid flowchart-link LS-callback LE-mint" id="L-callback-mint-0" d="M143.523,670L143.523,674.167C143.523,678.333,143.523,686.667,143.523,694.117C143.523,701.567,143.523,708.133,143.523,711.417L143.523,714.7"/><path marker-end="url(#my-svg_flowchart-pointEnd)" style="fill:none;" class="edge-thickness-normal edge-pattern-solid flowchart-link LS-mint LE-userUSDX" id="L-mint-userUSDX-0" d="M143.523,754L143.523,758.167C143.523,762.333,143.523,770.667,143.523,778.117C143.523,785.567,143.523,792.133,143.523,795.417L143.523,798.7"/></g><g class="edgeLabels"><g class="edgeLabel"><g transform="translate(0, 0)" class="label"><rect height="0" width="0" ry="0" rx="0"/><text style=""><tspan class="row" x="0" dy="1em" xml:space="preserve"/></text></g></g><g class="edgeLabel"><g transform="translate(0, 0)" class="label"><rect height="0" width="0" ry="0" rx="0"/><text style=""><tspan class="row" x="0" dy="1em" xml:space="preserve"/></text></g></g><g class="edgeLabel"><g transform="translate(0, 0)" class="label"><rect height="0" width="0" ry="0" rx="0"/><text style=""><tspan class="row" x="0" dy="1em" xml:space="preserve"/></text></g></g><g class="edgeLabel"><g transform="translate(0, 0)" class="label"><rect height="0" width="0" ry="0" rx="0"/><text style=""><tspan class="row" x="0" dy="1em" xml:space="preserve"/></text></g></g><g class="edgeLabel"><g transform="translate(0, 0)" class="label"><rect height="0" width="0" ry="0" rx="0"/><text style=""><tspan class="row" x="0" dy="1em" xml:space="preserve"/></text></g></g><g class="edgeLabel"><g transform="translate(0, 0)" class="label"><rect height="0" width="0" ry="0" rx="0"/><text style=""><tspan class="row" x="0" dy="1em" xml:space="preserve"/></text></g></g><g class="edgeLabel"><g transform="translate(0, 0)" class="label"><rect height="0" width="0" ry="0" rx="0"/><text style=""><tspan class="row" x="0" dy="1em" xml:space="preserve"/></text></g></g><g class="edgeLabel"><g transform="translate(0, 0)" class="label"><rect height="0" width="0" ry="0" rx="0"/><text style=""><tspan class="row" x="0" dy="1em" xml:space="preserve"/></text></g></g><g class="edgeLabel"><g transform="translate(0, 0)" class="label"><rect height="0" width="0" ry="0" rx="0"/><text style=""><tspan class="row" x="0" dy="1em" xml:space="preserve"/></text></g></g></g><g class="nodes"><g transform="translate(143.5234375, 17)" data-id="user" data-node="true" id="flowchart-user-0" class="node default default flowchart-label"><rect height="34" width="51.890625" y="-17" x="-25.9453125" ry="0" rx="0" style="" class="basic label-container"/><g transform="translate(0, -9.5)" style="" class="label"><rect/><text style=""><tspan class="row" x="0" dy="1em" xml:space="preserve">User</tspan></text></g></g><g transform="translate(143.5234375, 101)" data-id="init" data-node="true" id="flowchart-init-1" class="node default default flowchart-label"><rect height="34" width="196.578125" y="-17" x="-98.2890625" ry="0" rx="0" style="" class="basic label-container"/><g transform="translate(0, -9.5)" style="" class="label"><rect/><text style=""><tspan class="row" x="0" dy="1em" xml:space="preserve">1. Initiate deposit in UI</tspan></text></g></g><g transform="translate(143.5234375, 185)" data-id="ui" data-node="true" id="flowchart-ui-3" class="node default default flowchart-label"><rect height="34" width="285.578125" y="-17" x="-142.7890625" ry="0" rx="0" style="" class="basic label-container"/><g transform="translate(0, -9.5)" style="" class="label"><rect/><text style=""><tspan class="row" x="0" dy="1em" xml:space="preserve">Frontend (Bridge Kit components)</tspan></text></g></g><g transform="translate(143.5234375, 277)" data-id="sdk" data-node="true" id="flowchart-sdk-5" class="node default default flowchart-label"><rect height="50" width="132.015625" y="-25" x="-66.0078125" ry="0" rx="0" style="" class="basic label-container"/><g transform="translate(0, -17.5)" style="" class="label"><rect/><text style=""><tspan class="row" x="0" dy="1em" xml:space="preserve">Bridge Kit SDK</tspan><tspan class="row" x="0" dy="1em" xml:space="preserve">transfer()</tspan></text></g></g><g transform="translate(143.5234375, 377)" data-id="cctp" data-node="true" id="flowchart-cctp-7" class="node default default flowchart-label"><rect height="50" width="149.96875" y="-25" x="-74.984375" ry="0" rx="0" style="" class="basic label-container"/><g transform="translate(0, -17.5)" style="" class="label"><rect/><text style=""><tspan class="row" x="0" dy="1em" xml:space="preserve">CCTP Attestation</tspan><tspan class="row" x="0" dy="1em" xml:space="preserve">(Circle Network)</tspan></text></g></g><g transform="translate(143.5234375, 469)" data-id="hub" data-node="true" id="flowchart-hub-9" class="node default default flowchart-label"><rect height="34" width="184.328125" y="-17" x="-92.1640625" ry="0" rx="0" style="" class="basic label-container"/><g transform="translate(0, -9.5)" style="" class="label"><rect/><text style=""><tspan class="row" x="0" dy="1em" xml:space="preserve">USDC minted on Hub</tspan></text></g></g><g transform="translate(143.5234375, 561)" data-id="vault" data-node="true" id="flowchart-vault-11" class="node default default flowchart-label"><rect height="50" width="196.25" y="-25" x="-98.125" ry="0" rx="0" style="" class="basic label-container"/><g transform="translate(0, -17.5)" style="" class="label"><rect/><text style=""><tspan class="row" x="0" dy="1em" xml:space="preserve">USDXVault (Ethereum)</tspan><tspan class="row" x="0" dy="1em" xml:space="preserve">Receives USDC</tspan></text></g></g><g transform="translate(143.5234375, 653)" data-id="callback" data-node="true" id="flowchart-callback-13" class="node default default flowchart-label"><rect height="34" width="252.421875" y="-17" x="-126.2109375" ry="0" rx="0" style="" class="basic label-container"/><g transform="translate(0, -9.5)" style="" class="label"><rect/><text style=""><tspan class="row" x="0" dy="1em" xml:space="preserve">Bridge Kit callback / webhook</tspan></text></g></g><g transform="translate(143.5234375, 737)" data-id="mint" data-node="true" id="flowchart-mint-15" class="node default default flowchart-label"><rect height="34" width="287.046875" y="-17" x="-143.5234375" ry="0" rx="0" style="" class="basic label-container"/><g transform="translate(0, -9.5)" style="" class="label"><rect/><text style=""><tspan class="row" x="0" dy="1em" xml:space="preserve">Frontend/Backend calls mintUSDX</tspan></text></g></g><g transform="translate(143.5234375, 821)" data-id="userUSDX" data-node="true" id="flowchart-userUSDX-17" class="node default default flowchart-label"><rect height="34" width="173.6328125" y="-17" x="-86.81640625" ry="0" rx="0" style="" class="basic label-container"/><g transform="translate(0, -9.5)" style="" class="label"><rect/><text style=""><tspan class="row" x="0" dy="1em" xml:space="preserve">User receives USDX</tspan></text></g></g></g></g></g></svg>