<svg aria-roledescription="flowchart-v2" role="graphics-document document" viewBox="-8 -8 2291.078125 66" style="max-width: 2291.08px; background-color: white;" xmlns:xlink="http://www.w3.org/1999/xlink" xmlns="http://www.w3.org/2000/svg" width="100%" id="my-svg"><style>#my-svg{font-family:"trebuchet ms",verdana,arial,sans-serif;font-size:16px;fill:#333;}#my-svg .error-icon{fill:#552222;}#my-svg .error-text{fill:#552222;stroke:#552222;}#my-svg .edge-thickness-normal{stroke-width:2px;}#my-svg .edge-thickness-thick{stroke-width:3.5px;}#my-svg .edge-pattern-solid{stroke-dasharray:0;}#my-svg .edge-pattern-dashed{stroke-dasharray:3;}#my-svg .edge-pattern-dotted{stroke-dasharray:2;}#my-svg .marker{fill:#333333;stroke:#333333;}#my-svg .marker.cross{stroke:#333333;}#my-svg svg{font-family:"trebuchet ms",verdana,arial,sans-serif;font-size:16px;}#my-svg .label{font-family:"trebuchet ms",verdana,arial,sans-serif;color:#333;}#my-svg .cluster-label text{fill:#333;}#my-svg .cluster-label span,#my-svg p{color:#333;}#my-svg .label text,#my-svg span,#my-svg p{fill:#333;color:#333;}#my-svg .node rect,#my-svg .node circle,#my-svg .node ellipse,#my-svg .node polygon,#my-svg .node path{fill:#ECECFF;stroke:#9370DB;stroke-width:1px;}#my-svg .flowchart-label text{text-anchor:middle;}#my-svg .node .katex path{fill:#000;stroke:#000;stroke-width:1px;}#my-svg .node .label{text-align:center;}#my-svg .node.clickable{cursor:pointer;}#my-svg .arrowheadPath{fill:#333333;}#my-svg .edgePath .path{stroke:#333333;stroke-width:2.0px;}#my-svg .flowchart-link{stroke:#333333;fill:none;}#my-svg .edgeLabel{background-color:#e8e8e8;text-align:center;}#my-svg .edgeLabel rect{opacity:0.5;background-color:#e8e8e8;fill:#e8e8e8;}#my-svg .labelBkg{background-color:rgba(232, 232, 232, 0.5);}#my-svg .cluster rect{fill:#ffffde;stroke:#aaaa33;stroke-width:1px;}#my-svg .cluster text{fill:#333;}#my-svg .cluster span,#my-svg p{color:#333;}#my-svg div.mermaidTooltip{position:absolute;text-align:center;max-width:200px;padding:2px;font-family:"trebuchet ms",verdana,arial,sans-serif;font-size:12px;background:hsl(80, 100%, 96.2745098039%);border:1px solid #aaaa33;border-radius:2px;pointer-events:none;z-index:100;}#my-svg .flowchartTitleText{text-anchor:middle;font-size:18px;fill:#333;}#my-svg :root{--mermaid-font-family:"trebuchet ms",verdana,arial,sans-serif;}</style><g><marker orient="auto" markerHeight="12" markerWidth="12" markerUnits="userSpaceOnUse" refY="5" refX="6" viewBox="0 0 10 10" class="marker flowchart" id="my-svg_flowchart-pointEnd"><path style="stroke-width: 1; stroke-dasharray: 1, 0;" class="arrowMarkerPath" d="M 0 0 L 10 5 L 0 10 z"/></marker><marker orient="auto" markerHeight="12" markerWidth="12" markerUnits="userSpaceOnUse" refY="5" refX="4.5" viewBox="0 0 10 10" class="marker flowchart" id="my-svg_flowchart-pointStart"><path style="stroke-width: 1; stroke-dasharray: 1, 0;" class="arrowMarkerPath" d="M 0 5 L 10 10 L 10 0 z"/></marker><marker orient="auto" markerHeight="11" markerWidth="11" markerUnits="userSpaceOnUse" refY="5" refX="11" viewBox="0 0 10 10" class="marker flowchart" id="my-svg_flowchart-circleEnd"><circle style="stroke-width: 1; stroke-dasharray: 1, 0;" class="arrowMarkerPath" r="5" cy="5" cx="5"/></marker><marker orient="auto" markerHeight="11" markerWidth="11" markerUnits="userSpaceOnUse" refY="5" refX="-1" viewBox="0 0 10 10" class="marker flowchart" id="my-svg_flowchart-circleStart"><circle style="stroke-width: 1; stroke-dasharray: 1, 0;" class="arrowMarkerPath" r="5" cy="5" cx="5"/></marker><marker orient="auto" markerHeight="11" markerWidth="11" markerUnits="userSpaceOnUse" refY="5.2" refX="12" viewBox="0 0 11 11" class="marker cross flowchart" id="my-svg_flowchart-crossEnd"><path style="stroke-width: 2; stroke-dasharray: 1, 0;" class="arrowMarkerPath" d="M 1,1 l 9,9 M 10,1 l -9,9"/></marker><marker orient="auto" markerHeight="11" markerWidth="11" markerUnits="userSpaceOnUse" refY="5.2" refX="-1" viewBox="0 0 11 11" class="marker cross flowchart" id="my-svg_flowchart-crossStart"><path style="stroke-width: 2; stroke-dasharray: 1, 0;" class="arrowMarkerPath" d="M 1,1 l 9,9 M 10,1 l -9,9"/></marker><g class="root"><g class="clusters"/><g class="edgePaths"><path marker-end="url(#my-svg_flowchart-pointEnd)" style="fill:none;" class="edge-thickness-normal edge-pattern-solid flowchart-link LS-userA LE-request" id="L-userA-request-0" d="M143.359,25L147.526,25C151.693,25,160.026,25,167.476,25C174.926,25,181.493,25,184.776,25L188.059,25"/><path marker-end="url(#my-svg_flowchart-pointEnd)" style="fill:none;" class="edge-thickness-normal edge-pattern-solid flowchart-link LS-request LE-tokenA" id="L-request-tokenA-0" d="M520.156,25L524.323,25C528.49,25,536.823,25,544.273,25C551.723,25,558.29,25,561.573,25L564.856,25"/><path marker-end="url(#my-svg_flowchart-pointEnd)" style="fill:none;" class="edge-thickness-normal edge-pattern-solid flowchart-link LS-tokenA LE-bridgeA" id="L-tokenA-bridgeA-0" d="M754.859,25L759.026,25C763.193,25,771.526,25,778.976,25C786.426,25,792.993,25,796.276,25L799.559,25"/><path marker-end="url(#my-svg_flowchart-pointEnd)" style="fill:none;" class="edge-thickness-normal edge-pattern-solid flowchart-link LS-bridgeA LE-hyperlane" id="L-bridgeA-hyperlane-0" d="M1045.75,25L1049.917,25C1054.083,25,1062.417,25,1069.867,25C1077.317,25,1083.883,25,1087.167,25L1090.45,25"/><path marker-end="url(#my-svg_flowchart-pointEnd)" style="fill:none;" class="edge-thickness-normal edge-pattern-solid flowchart-link LS-hyperlane LE-ism" id="L-hyperlane-ism-0" d="M1278.75,25L1282.917,25C1287.083,25,1295.417,25,1302.867,25C1310.317,25,1316.883,25,1320.167,25L1323.45,25"/><path marker-end="url(#my-svg_flowchart-pointEnd)" style="fill:none;" class="edge-thickness-normal edge-pattern-solid flowchart-link LS-ism LE-bridgeB" id="L-ism-bridgeB-0" d="M1438.813,25L1442.979,25C1447.146,25,1455.479,25,1462.929,25C1470.379,25,1476.946,25,1480.229,25L1483.513,25"/><path marker-end="url(#my-svg_flowchart-pointEnd)" style="fill:none;" class="edge-thickness-normal edge-pattern-solid flowchart-link LS-bridgeB LE-tokenB" id="L-bridgeB-tokenB-0" d="M1724.875,25L1729.042,25C1733.208,25,1741.542,25,1748.992,25C1756.442,25,1763.008,25,1766.292,25L1769.575,25"/><path marker-end="url(#my-svg_flowchart-pointEnd)" style="fill:none;" class="edge-thickness-normal edge-pattern-solid flowchart-link LS-tokenB LE-userB" id="L-tokenB-userB-0" d="M1959.609,25L1963.776,25C1967.943,25,1976.276,25,1983.726,25C1991.176,25,1997.743,25,2001.026,25L2004.309,25"/></g><g class="edgeLabels"><g class="edgeLabel"><g transform="translate(0, 0)" class="label"><rect height="0" width="0" ry="0" rx="0"/><text style=""><tspan class="row" x="0" dy="1em" xml:space="preserve"/></text></g></g><g class="edgeLabel"><g transform="translate(0, 0)" class="label"><rect height="0" width="0" ry="0" rx="0"/><text style=""><tspan class="row" x="0" dy="1em" xml:space="preserve"/></text></g></g><g class="edgeLabel"><g transform="translate(0, 0)" class="label"><rect height="0" width="0" ry="0" rx="0"/><text style=""><tspan class="row" x="0" dy="1em" xml:space="preserve"/></text></g></g><g class="edgeLabel"><g transform="translate(0, 0)" class="label"><rect height="0" width="0" ry="0" rx="0"/><text style=""><tspan class="row" x="0" dy="1em" xml:space="preserve"/></text></g></g><g class="edgeLabel"><g transform="translate(0, 0)" class="label"><rect height="0" width="0" ry="0" rx="0"/><text style=""><tspan class="row" x="0" dy="1em" xml:space="preserve"/></text></g></g><g class="edgeLabel"><g transform="translate(0, 0)" class="label"><rect height="0" width="0" ry="0" rx="0"/><text style=""><tspan class="row" x="0" dy="1em" xml:space="preserve"/></text></g></g><g class="edgeLabel"><g transform="translate(0, 0)" class="label"><rect height="0" width="0" ry="0" rx="0"/><text style=""><tspan class="row" x="0" dy="1em" xml:space="preserve"/></text></g></g><g class="edgeLabel"><g transform="translate(0, 0)" class="label"><rect height="0" width="0" ry="0" rx="0"/><text style=""><tspan class="row" x="0" dy="1em" xml:space="preserve"/></text></g></g></g><g class="nodes"><g transform="translate(71.6796875, 25)" data-id="userA" data-node="true" id="flowchart-userA-0" class="node default default flowchart-label"><rect height="34" width="143.359375" y="-17" x="-71.6796875" ry="0" rx="0" style="" class="basic label-container"/><g transform="translate(0, -9.5)" style="" class="label"><rect/><text style=""><tspan class="row" x="0" dy="1em" xml:space="preserve">User on Chain A</tspan></text></g></g><g transform="translate(356.7578125, 25)" data-id="request" data-node="true" id="flowchart-request-1" class="node default default flowchart-label"><rect height="34" width="326.796875" y="-17" x="-163.3984375" ry="0" rx="0" style="" class="basic label-container"/><g transform="translate(0, -9.5)" style="" class="label"><rect/><text style=""><tspan class="row" x="0" dy="1em" xml:space="preserve">1. transferCrossChain(amount, chainB)</tspan></text></g></g><g transform="translate(662.5078125, 25)" data-id="tokenA" data-node="true" id="flowchart-tokenA-3" class="node default default flowchart-label"><rect height="50" width="184.703125" y="-25" x="-92.3515625" ry="0" rx="0" style="" class="basic label-container"/><g transform="translate(0, -17.5)" style="" class="label"><rect/><text style=""><tspan class="row" x="0" dy="1em" xml:space="preserve">USDXToken (Chain A)</tspan><tspan class="row" x="0" dy="1em" xml:space="preserve">Burns USDX</tspan></text></g></g><g transform="translate(925.3046875, 25)" data-id="bridgeA" data-node="true" id="flowchart-bridgeA-5" class="node default default flowchart-label"><rect height="50" width="240.890625" y="-25" x="-120.4453125" ry="0" rx="0" style="" class="basic label-container"/><g transform="translate(0, -17.5)" style="" class="label"><rect/><text style=""><tspan class="row" x="0" dy="1em" xml:space="preserve">CrossChainBridge</tspan><tspan class="row" x="0" dy="1em" xml:space="preserve">Creates Hyperlane message</tspan></text></g></g><g transform="translate(1187.25, 25)" data-id="hyperlane" data-node="true" id="flowchart-hyperlane-7" class="node default default flowchart-label"><rect height="50" width="183" y="-25" x="-91.5" ry="0" rx="0" style="" class="basic label-container"/><g transform="translate(0, -17.5)" style="" class="label"><rect/><text style=""><tspan class="row" x="0" dy="1em" xml:space="preserve">Hyperlane dispatch()</tspan><tspan class="row" x="0" dy="1em" xml:space="preserve">Validators verify</tspan></text></g></g><g transform="translate(1383.78125, 25)" data-id="ism" data-node="true" id="flowchart-ism-9" class="node default default flowchart-label"><rect height="34" width="110.0625" y="-17" x="-55.03125" ry="0" rx="0" style="" class="basic label-container"/><g transform="translate(0, -9.5)" style="" class="label"><rect/><text style=""><tspan class="row" x="0" dy="1em" xml:space="preserve">Custom ISM</tspan></text></g></g><g transform="translate(1606.84375, 25)" data-id="bridgeB" data-node="true" id="flowchart-bridgeB-11" class="node default default flowchart-label"><rect height="50" width="236.0625" y="-25" x="-118.03125" ry="0" rx="0" style="" class="basic label-container"/><g transform="translate(0, -17.5)" style="" class="label"><rect/><text style=""><tspan class="row" x="0" dy="1em" xml:space="preserve">CrossChainBridge (Chain B)</tspan><tspan class="row" x="0" dy="1em" xml:space="preserve">handle() callback</tspan></text></g></g><g transform="translate(1867.2421875, 25)" data-id="tokenB" data-node="true" id="flowchart-tokenB-13" class="node default default flowchart-label"><rect height="50" width="184.734375" y="-25" x="-92.3671875" ry="0" rx="0" style="" class="basic label-container"/><g transform="translate(0, -17.5)" style="" class="label"><rect/><text style=""><tspan class="row" x="0" dy="1em" xml:space="preserve">USDXToken (Chain B)</tspan><tspan class="row" x="0" dy="1em" xml:space="preserve">Mints USDX</tspan></text></g></g><g transform="translate(2142.34375, 25)" data-id="userB" data-node="true" id="flowchart-userB-15" class="node default default flowchart-label"><rect height="34" width="265.46875" y="-17" x="-132.734375" ry="0" rx="0" style="" class="basic label-container"/><g transform="translate(0, -9.5)" style="" class="label"><rect/><text style=""><tspan class="row" x="0" dy="1em" xml:space="preserve">User receives USDX on Chain B</tspan></text></g></g></g></g></g></svg>