<svg aria-roledescription="flowchart-v2" role="graphics-document document" viewBox="-8 -8 294.390625 754" style="max-width: 294.391px; background-color: white;" xmlns:xlink="http://www.w3.org/1999/xlink" xmlns="http://www.w3.org/2000/svg" width="100%" id="my-svg"><style>#my-svg{font-family:"trebuchet ms",verdana,arial,sans-serif;font-size:16px;fill:#333;}#my-svg .error-icon{fill:#552222;}#my-svg .error-text{fill:#552222;stroke:#552222;}#my-svg .edge-thickness-normal{stroke-width:2px;}#my-svg .edge-thickness-thick{stroke-width:3.5px;}#my-svg .edge-pattern-solid{stroke-dasharray:0;}#my-svg .edge-pattern-dashed{stroke-dasharray:3;}#my-svg .edge-pattern-dotted{stroke-dasharray:2;}#my-svg .marker{fill:#333333;stroke:#333333;}#my-svg .marker.cross{stroke:#333333;}#my-svg svg{font-family:"trebuchet ms",verdana,arial,sans-serif;font-size:16px;}#my-svg .label{font-family:"trebuchet ms",verdana,arial,sans-serif;color:#333;}#my-svg .cluster-label text{fill:#333;}#my-svg .cluster-label span,#my-svg p{color:#333;}#my-svg .label text,#my-svg span,#my-svg p{fill:#333;color:#333;}#my-svg .node rect,#my-svg .node circle,#my-svg .node ellipse,#my-svg .node polygon,#my-svg .node path{fill:#ECECFF;stroke:#9370DB;stroke-width:1px;}#my-svg .flowchart-label text{text-anchor:middle;}#my-svg .node .katex path{fill:#000;stroke:#000;stroke-width:1px;}#my-svg .node .label{text-align:center;}#my-svg .node.clickable{cursor:pointer;}#my-svg .arrowheadPath{fill:#333333;}#my-svg .edgePath .path{stroke:#333333;stroke-width:2.0px;}#my-svg .flowchart-link{stroke:#333333;fill:none;}#my-svg .edgeLabel{background-color:#e8e8e8;text-align:center;}#my-svg .edgeLabel rect{opacity:0.5;background-color:#e8e8e8;fill:#e8e8e8;}#my-svg .labelBkg{background-color:rgba(232, 232, 232, 0.5);}#my-svg .cluster rect{fill:#ffffde;stroke:#aaaa33;stroke-width:1px;}#my-svg .cluster text{fill:#333;}#my-svg .cluster span,#my-svg p{color:#333;}#my-svg div.mermaidTooltip{position:absolute;text-align:center;max-width:200px;padding:2px;font-family:"trebuchet ms",verdana,arial,sans-serif;font-size:12px;background:hsl(80, 100%, 96.2745098039%);border:1px solid #aaaa33;border-radius:2px;pointer-events:none;z-index:100;}#my-svg .flowchartTitleText{text-anchor:middle;font-size:18px;fill:#333;}#my-svg :root{--mermaid-font-family:"trebuchet ms",verdana,arial,sans-serif;}</style><g><marker orient="auto" markerHeight="12" markerWidth="12" markerUnits="userSpaceOnUse" refY="5" refX="6" viewBox="0 0 10 10" class="marker flowchart" id="my-svg_flowchart-pointEnd"><path style="stroke-width: 1; stroke-dasharray: 1, 0;" class="arrowMarkerPath" d="M 0 0 L 10 5 L 0 10 z"/></marker><marker orient="auto" markerHeight="12" markerWidth="12" markerUnits="userSpaceOnUse" refY="5" refX="4.5" viewBox="0 0 10 10" class="marker flowchart" id="my-svg_flowchart-pointStart"><path style="stroke-width: 1; stroke-dasharray: 1, 0;" class="arrowMarkerPath" d="M 0 5 L 10 10 L 10 0 z"/></marker><marker orient="auto" markerHeight="11" markerWidth="11" markerUnits="userSpaceOnUse" refY="5" refX="11" viewBox="0 0 10 10" class="marker flowchart" id="my-svg_flowchart-circleEnd"><circle style="stroke-width: 1; stroke-dasharray: 1, 0;" class="arrowMarkerPath" r="5" cy="5" cx="5"/></marker><marker orient="auto" markerHeight="11" markerWidth="11" markerUnits="userSpaceOnUse" refY="5" refX="-1" viewBox="0 0 10 10" class="marker flowchart" id="my-svg_flowchart-circleStart"><circle style="stroke-width: 1; stroke-dasharray: 1, 0;" class="arrowMarkerPath" r="5" cy="5" cx="5"/></marker><marker orient="auto" markerHeight="11" markerWidth="11" markerUnits="userSpaceOnUse" refY="5.2" refX="12" viewBox="0 0 11 11" class="marker cross flowchart" id="my-svg_flowchart-crossEnd"><path style="stroke-width: 2; stroke-dasharray: 1, 0;" class="arrowMarkerPath" d="M 1,1 l 9,9 M 10,1 l -9,9"/></marker><marker orient="auto" markerHeight="11" markerWidth="11" markerUnits="userSpaceOnUse" refY="5.2" refX="-1" viewBox="0 0 11 11" class="marker cross flowchart" id="my-svg_flowchart-crossStart"><path style="stroke-width: 2; stroke-dasharray: 1, 0;" class="arrowMarkerPath" d="M 1,1 l 9,9 M 10,1 l -9,9"/></marker><g class="root"><g class="clusters"/><g class="edgePaths"><path marker-end="url(#my-svg_flowchart-pointEnd)" style="fill:none;" class="edge-thickness-normal edge-pattern-solid flowchart-link LS-user LE-step1" id="L-user-step1-0" d="M139.195,34L139.195,38.167C139.195,42.333,139.195,50.667,139.195,58.117C139.195,65.567,139.195,72.133,139.195,75.417L139.195,78.7"/><path marker-end="url(#my-svg_flowchart-pointEnd)" style="fill:none;" class="edge-thickness-normal edge-pattern-solid flowchart-link LS-step1 LE-bridgeKit" id="L-step1-bridgeKit-0" d="M139.195,118L139.195,122.167C139.195,126.333,139.195,134.667,139.195,142.117C139.195,149.567,139.195,156.133,139.195,159.417L139.195,162.7"/><path marker-end="url(#my-svg_flowchart-pointEnd)" style="fill:none;" class="edge-thickness-normal edge-pattern-solid flowchart-link LS-bridgeKit LE-cctp" id="L-bridgeKit-cctp-0" d="M139.195,218L139.195,222.167C139.195,226.333,139.195,234.667,139.195,242.117C139.195,249.567,139.195,256.133,139.195,259.417L139.195,262.7"/><path marker-end="url(#my-svg_flowchart-pointEnd)" style="fill:none;" class="edge-thickness-normal edge-pattern-solid flowchart-link LS-cctp LE-hubArrival" id="L-cctp-hubArrival-0" d="M139.195,302L139.195,306.167C139.195,310.333,139.195,318.667,139.195,326.117C139.195,333.567,139.195,340.133,139.195,343.417L139.195,346.7"/><path marker-end="url(#my-svg_flowchart-pointEnd)" style="fill:none;" class="edge-thickness-normal edge-pattern-solid flowchart-link LS-hubArrival LE-deposit" id="L-hubArrival-deposit-0" d="M139.195,386L139.195,390.167C139.195,394.333,139.195,402.667,139.195,410.117C139.195,417.567,139.195,424.133,139.195,427.417L139.195,430.7"/><path marker-end="url(#my-svg_flowchart-pointEnd)" style="fill:none;" class="edge-thickness-normal edge-pattern-solid flowchart-link LS-deposit LE-vault" id="L-deposit-vault-0" d="M139.195,470L139.195,474.167C139.195,478.333,139.195,486.667,139.195,494.117C139.195,501.567,139.195,508.133,139.195,511.417L139.195,514.7"/><path marker-end="url(#my-svg_flowchart-pointEnd)" style="fill:none;" class="edge-thickness-normal edge-pattern-solid flowchart-link LS-vault LE-ovault" id="L-vault-ovault-0" d="M139.195,554L139.195,558.167C139.195,562.333,139.195,570.667,139.195,578.117C139.195,585.567,139.195,592.133,139.195,595.417L139.195,598.7"/><path marker-end="url(#my-svg_flowchart-pointEnd)" style="fill:none;" class="edge-thickness-normal edge-pattern-solid flowchart-link LS-ovault LE-yearn" id="L-ovault-yearn-0" d="M139.195,638L139.195,642.167C139.195,646.333,139.195,654.667,139.195,662.117C139.195,669.567,139.195,676.133,139.195,679.417L139.195,682.7"/></g><g class="edgeLabels"><g class="edgeLabel"><g transform="translate(0, 0)" class="label"><rect height="0" width="0" ry="0" rx="0"/><text style=""><tspan class="row" x="0" dy="1em" xml:space="preserve"/></text></g></g><g class="edgeLabel"><g transform="translate(0, 0)" class="label"><rect height="0" width="0" ry="0" rx="0"/><text style=""><tspan class="row" x="0" dy="1em" xml:space="preserve"/></text></g></g><g class="edgeLabel"><g transform="translate(0, 0)" class="label"><rect height="0" width="0" ry="0" rx="0"/><text style=""><tspan class="row" x="0" dy="1em" xml:space="preserve"/></text></g></g><g class="edgeLabel"><g transform="translate(0, 0)" class="label"><rect height="0" width="0" ry="0" rx="0"/><text style=""><tspan class="row" x="0" dy="1em" xml:space="preserve"/></text></g></g><g class="edgeLabel"><g transform="translate(0, 0)" class="label"><rect height="0" width="0" ry="0" rx="0"/><text style=""><tspan class="row" x="0" dy="1em" xml:space="preserve"/></text></g></g><g class="edgeLabel"><g transform="translate(0, 0)" class="label"><rect height="0" width="0" ry="0" rx="0"/><text style=""><tspan class="row" x="0" dy="1em" xml:space="preserve"/></text></g></g><g class="edgeLabel"><g transform="translate(0, 0)" class="label"><rect height="0" width="0" ry="0" rx="0"/><text style=""><tspan class="row" x="0" dy="1em" xml:space="preserve"/></text></g></g><g class="edgeLabel"><g transform="translate(0, 0)" class="label"><rect height="0" width="0" ry="0" rx="0"/><text style=""><tspan class="row" x="0" dy="1em" xml:space="preserve"/></text></g></g></g><g class="nodes"><g transform="translate(139.1953125, 17)" data-id="user" data-node="true" id="flowchart-user-0" class="node default default flowchart-label"><rect height="34" width="181" y="-17" x="-90.5" ry="0" rx="0" style="" class="basic label-container"/><g transform="translate(0, -9.5)" style="" class="label"><rect/><text style=""><tspan class="row" x="0" dy="1em" xml:space="preserve">User on Spoke Chain</tspan></text></g></g><g transform="translate(139.1953125, 101)" data-id="step1" data-node="true" id="flowchart-step1-1" class="node default default flowchart-label"><rect height="34" width="243.53125" y="-17" x="-121.765625" ry="0" rx="0" style="" class="basic label-container"/><g transform="translate(0, -9.5)" style="" class="label"><rect/><text style=""><tspan class="row" x="0" dy="1em" xml:space="preserve">1. Initiate Bridge Kit transfer</tspan></text></g></g><g transform="translate(139.1953125, 193)" data-id="bridgeKit" data-node="true" id="flowchart-bridgeKit-3" class="node default default flowchart-label"><rect height="50" width="262.6875" y="-25" x="-131.34375" ry="0" rx="0" style="" class="basic label-container"/><g transform="translate(0, -17.5)" style="" class="label"><rect/><text style=""><tspan class="row" x="0" dy="1em" xml:space="preserve">Bridge Kit SDK</tspan><tspan class="row" x="0" dy="1em" xml:space="preserve">(burns USDC, polls attestation)</tspan></text></g></g><g transform="translate(139.1953125, 285)" data-id="cctp" data-node="true" id="flowchart-cctp-5" class="node default default flowchart-label"><rect height="34" width="149.96875" y="-17" x="-74.984375" ry="0" rx="0" style="" class="basic label-container"/><g transform="translate(0, -9.5)" style="" class="label"><rect/><text style=""><tspan class="row" x="0" dy="1em" xml:space="preserve">CCTP Attestation</tspan></text></g></g><g transform="translate(139.1953125, 369)" data-id="hubArrival" data-node="true" id="flowchart-hubArrival-7" class="node default default flowchart-label"><rect height="34" width="278.390625" y="-17" x="-139.1953125" ry="0" rx="0" style="" class="basic label-container"/><g transform="translate(0, -9.5)" style="" class="label"><rect/><text style=""><tspan class="row" x="0" dy="1em" xml:space="preserve">USDC arrives on Hub (Ethereum)</tspan></text></g></g><g transform="translate(139.1953125, 453)" data-id="deposit" data-node="true" id="flowchart-deposit-9" class="node default default flowchart-label"><rect height="34" width="193.578125" y="-17" x="-96.7890625" ry="0" rx="0" style="" class="basic label-container"/><g transform="translate(0, -9.5)" style="" class="label"><rect/><text style=""><tspan class="row" x="0" dy="1em" xml:space="preserve">depositUSDC(amount)</tspan></text></g></g><g transform="translate(139.1953125, 537)" data-id="vault" data-node="true" id="flowchart-vault-11" class="node default default flowchart-label"><rect height="34" width="100.515625" y="-17" x="-50.2578125" ry="0" rx="0" style="" class="basic label-container"/><g transform="translate(0, -9.5)" style="" class="label"><rect/><text style=""><tspan class="row" x="0" dy="1em" xml:space="preserve">USDXVault</tspan></text></g></g><g transform="translate(139.1953125, 621)" data-id="ovault" data-node="true" id="flowchart-ovault-13" class="node default default flowchart-label"><rect height="34" width="181.203125" y="-17" x="-90.6015625" ry="0" rx="0" style="" class="basic label-container"/><g transform="translate(0, -9.5)" style="" class="label"><rect/><text style=""><tspan class="row" x="0" dy="1em" xml:space="preserve">OVault / Yield Routes</tspan></text></g></g><g transform="translate(139.1953125, 713)" data-id="yearn" data-node="true" id="flowchart-yearn-15" class="node default default flowchart-label"><rect height="50" width="155.640625" y="-25" x="-77.8203125" ry="0" rx="0" style="" class="basic label-container"/><g transform="translate(0, -17.5)" style="" class="label"><rect/><text style=""><tspan class="row" x="0" dy="1em" xml:space="preserve">Yearn USDC Vault</tspan><tspan class="row" x="0" dy="1em" xml:space="preserve">(Yield accrues)</tspan></text></g></g></g></g></g></svg>