<svg aria-roledescription="flowchart-v2" role="graphics-document document" viewBox="-8 -8 1577.1640625 914" style="max-width: 1577.16px; background-color: white;" xmlns:xlink="http://www.w3.org/1999/xlink" xmlns="http://www.w3.org/2000/svg" width="100%" id="my-svg"><style>#my-svg{font-family:"trebuchet ms",verdana,arial,sans-serif;font-size:16px;fill:#333;}#my-svg .error-icon{fill:#552222;}#my-svg .error-text{fill:#552222;stroke:#552222;}#my-svg .edge-thickness-normal{stroke-width:2px;}#my-svg .edge-thickness-thick{stroke-width:3.5px;}#my-svg .edge-pattern-solid{stroke-dasharray:0;}#my-svg .edge-pattern-dashed{stroke-dasharray:3;}#my-svg .edge-pattern-dotted{stroke-dasharray:2;}#my-svg .marker{fill:#333333;stroke:#333333;}#my-svg .marker.cross{stroke:#333333;}#my-svg svg{font-family:"trebuchet ms",verdana,arial,sans-serif;font-size:16px;}#my-svg .label{font-family:"trebuchet ms",verdana,arial,sans-serif;color:#333;}#my-svg .cluster-label text{fill:#333;}#my-svg .cluster-label span,#my-svg p{color:#333;}#my-svg .label text,#my-svg span,#my-svg p{fill:#333;color:#333;}#my-svg .node rect,#my-svg .node circle,#my-svg .node ellipse,#my-svg .node polygon,#my-svg .node path{fill:#ECECFF;stroke:#9370DB;stroke-width:1px;}#my-svg .flowchart-label text{text-anchor:middle;}#my-svg .node .katex path{fill:#000;stroke:#000;stroke-width:1px;}#my-svg .node .label{text-align:center;}#my-svg .node.clickable{cursor:pointer;}#my-svg .arrowheadPath{fill:#333333;}#my-svg .edgePath .path{stroke:#333333;stroke-width:2.0px;}#my-svg .flowchart-link{stroke:#333333;fill:none;}#my-svg .edgeLabel{background-color:#e8e8e8;text-align:center;}#my-svg .edgeLabel rect{opacity:0.5;background-color:#e8e8e8;fill:#e8e8e8;}#my-svg .labelBkg{background-color:rgba(232, 232, 232, 0.5);}#my-svg .cluster rect{fill:#ffffde;stroke:#aaaa33;stroke-width:1px;}#my-svg .cluster text{fill:#333;}#my-svg .cluster span,#my-svg p{color:#333;}#my-svg div.mermaidTooltip{position:absolute;text-align:center;max-width:200px;padding:2px;font-family:"trebuchet ms",verdana,arial,sans-serif;font-size:12px;background:hsl(80, 100%, 96.2745098039%);border:1px solid #aaaa33;border-radius:2px;pointer-events:none;z-index:100;}#my-svg .flowchartTitleText{text-anchor:middle;font-size:18px;fill:#333;}#my-svg :root{--mermaid-font-family:"trebuchet ms",verdana,arial,sans-serif;}</style><g><marker orient="auto" markerHeight="12" markerWidth="12" markerUnits="userSpaceOnUse" refY="5" refX="6" viewBox="0 0 10 10" class="marker flowchart" id="my-svg_flowchart-pointEnd"><path style="stroke-width: 1; stroke-dasharray: 1, 0;" class="arrowMarkerPath" d="M 0 0 L 10 5 L 0 10 z"/></marker><marker orient="auto" markerHeight="12" markerWidth="12" markerUnits="userSpaceOnUse" refY="5" refX="4.5" viewBox="0 0 10 10" class="marker flowchart" id="my-svg_flowchart-pointStart"><path style="stroke-width: 1; stroke-dasharray: 1, 0;" class="arrowMarkerPath" d="M 0 5 L 10 10 L 10 0 z"/></marker><marker orient="auto" markerHeight="11" markerWidth="11" markerUnits="userSpaceOnUse" refY="5" refX="11" viewBox="0 0 10 10" class="marker flowchart" id="my-svg_flowchart-circleEnd"><circle style="stroke-width: 1; stroke-dasharray: 1, 0;" class="arrowMarkerPath" r="5" cy="5" cx="5"/></marker><marker orient="auto" markerHeight="11" markerWidth="11" markerUnits="userSpaceOnUse" refY="5" refX="-1" viewBox="0 0 10 10" class="marker flowchart" id="my-svg_flowchart-circleStart"><circle style="stroke-width: 1; stroke-dasharray: 1, 0;" class="arrowMarkerPath" r="5" cy="5" cx="5"/></marker><marker orient="auto" markerHeight="11" markerWidth="11" markerUnits="userSpaceOnUse" refY="5.2" refX="12" viewBox="0 0 11 11" class="marker cross flowchart" id="my-svg_flowchart-crossEnd"><path style="stroke-width: 2; stroke-dasharray: 1, 0;" class="arrowMarkerPath" d="M 1,1 l 9,9 M 10,1 l -9,9"/></marker><marker orient="auto" markerHeight="11" markerWidth="11" markerUnits="userSpaceOnUse" refY="5.2" refX="-1" viewBox="0 0 11 11" class="marker cross flowchart" id="my-svg_flowchart-crossStart"><path style="stroke-width: 2; stroke-dasharray: 1, 0;" class="arrowMarkerPath" d="M 1,1 l 9,9 M 10,1 l -9,9"/></marker><g class="root"><g class="clusters"><g id="subGraph6" class="cluster default flowchart-label"><rect height="352" width="870.9296875" y="462" x="690.234375" ry="0" rx="0" style=""/><g transform="translate(1125.69921875, 462)" class="cluster-label"><text style=""><tspan class="row" x="0" dy="1em" xml:space="preserve">Spoke Chains</tspan></text></g></g><g id="subGraph2" class="cluster default flowchart-label"><rect height="596" width="670.234375" y="0" x="0" ry="0" rx="0" style=""/><g transform="translate(335.1171875, 0)" class="cluster-label"><text style=""><tspan class="row" x="0" dy="1em" xml:space="preserve">Hub Chain (Ethereum)</tspan></text></g></g><g id="Polygon" class="cluster default flowchart-label"><rect height="302" width="230.296875" y="487" x="710.234375" ry="0" rx="0" style=""/><g transform="translate(825.3828125, 487)" class="cluster-label"><text style=""><tspan class="row" x="0" dy="1em" xml:space="preserve">Polygon</tspan></text></g></g><g id="Arbitrum" class="cluster default flowchart-label"><rect height="302" width="230.296875" y="487" x="1006.9140625" ry="0" rx="0" style=""/><g transform="translate(1122.0625, 487)" class="cluster-label"><text style=""><tspan class="row" x="0" dy="1em" xml:space="preserve">Arbitrum</tspan></text></g></g><g id="Optimism" class="cluster default flowchart-label"><rect height="302" width="230.296875" y="487" x="1310.8671875" ry="0" rx="0" style=""/><g transform="translate(1426.015625, 487)" class="cluster-label"><text style=""><tspan class="row" x="0" dy="1em" xml:space="preserve">Optimism</tspan></text></g></g><g id="subGraph0" class="cluster default flowchart-label"><rect height="546" width="308.3125" y="25" x="20" ry="0" rx="0" style=""/><g transform="translate(174.15625, 25)" class="cluster-label"><text style=""><tspan class="row" x="0" dy="1em" xml:space="preserve">Collateral &amp; Yield Generation</tspan></text></g></g><g id="subGraph1" class="cluster default flowchart-label"><rect height="334" width="301.921875" y="237" x="348.3125" ry="0" rx="0" style=""/><g transform="translate(499.2734375, 237)" class="cluster-label"><text style=""><tspan class="row" x="0" dy="1em" xml:space="preserve">LayerZero OVault Components</tspan></text></g></g></g><g class="edgePaths"><path marker-end="url(#my-svg_flowchart-pointEnd)" style="fill:none;" class="edge-thickness-normal edge-pattern-solid flowchart-link LS-user LE-vault" id="L-user-vault-0" d="M208.422,84L208.422,88.167C208.422,92.333,208.422,100.667,208.422,108.117C208.422,115.567,208.422,122.133,208.422,125.417L208.422,128.7"/><path marker-end="url(#my-svg_flowchart-pointEnd)" style="fill:none;" class="edge-thickness-normal edge-pattern-solid flowchart-link LS-vault LE-wrapper" id="L-vault-wrapper-0" d="M197,168L193.137,173.75C189.273,179.5,181.547,191,177.684,202.5C173.82,214,173.82,225.5,173.82,234.533C173.82,243.567,173.82,250.133,173.82,253.417L173.82,256.7"/><path marker-end="url(#my-svg_flowchart-pointEnd)" style="fill:none;" class="edge-thickness-normal edge-pattern-solid flowchart-link LS-wrapper LE-yearn" id="L-wrapper-yearn-0" d="M173.82,312L173.82,316.167C173.82,320.333,173.82,328.667,173.82,337.45C173.82,346.233,173.82,355.467,173.82,360.083L173.82,364.7"/><path marker-end="url(#my-svg_flowchart-pointEnd)" style="fill:none;" class="edge-thickness-normal edge-pattern-solid flowchart-link LS-yearn LE-yield" id="L-yearn-yield-0" d="M173.82,404L173.82,409.5C173.82,415,173.82,426,173.82,435.667C173.82,445.333,173.82,453.667,173.82,462C173.82,470.333,173.82,478.667,173.82,486.117C173.82,493.567,173.82,500.133,173.82,503.417L173.82,506.7"/><path marker-end="url(#my-svg_flowchart-pointEnd)" style="fill:none;" class="edge-thickness-normal edge-pattern-solid flowchart-link LS-adapter LE-composer" id="L-adapter-composer-0" d="M502.883,312L502.049,316.167C501.216,320.333,499.549,328.667,498.716,336.117C497.883,343.567,497.883,350.133,497.883,353.417L497.883,356.7"/><path marker-end="url(#my-svg_flowchart-pointEnd)" style="fill:none;" class="edge-thickness-normal edge-pattern-solid flowchart-link LS-composer LE-tokenHub" id="L-composer-tokenHub-0" d="M497.883,412L497.883,416.167C497.883,420.333,497.883,428.667,497.883,437C497.883,445.333,497.883,453.667,497.883,462C497.883,470.333,497.883,478.667,497.883,486.117C497.883,493.567,497.883,500.133,497.883,503.417L497.883,506.7"/><path marker-end="url(#my-svg_flowchart-pointEnd)" style="fill:none;stroke-width:2px;stroke-dasharray:3;" class="edge-thickness-normal edge-pattern-dotted flowchart-link LS-vault LE-adapter" id="L-vault-adapter-0" d="M222.388,168L227.112,173.75C231.835,179.5,241.283,191,246.007,202.5C250.73,214,250.73,225.5,276.033,236.17C301.336,246.84,351.942,256.679,377.245,261.599L402.547,266.519"/><path marker-end="url(#my-svg_flowchart-pointEnd)" style="fill:none;" class="edge-thickness-normal edge-pattern-solid flowchart-link LS-adapter LE-lz" id="L-adapter-lz-0" d="M540.275,312L545.674,316.167C551.073,320.333,561.87,328.667,642.957,339.722C724.043,350.777,875.417,364.553,951.105,371.441L1026.792,378.33"/><path marker-end="url(#my-svg_flowchart-pointEnd)" style="fill:none;" class="edge-thickness-normal edge-pattern-solid flowchart-link LS-sharePoly LE-minterPoly" id="L-sharePoly-minterPoly-0" d="M825.383,546L825.383,550.167C825.383,554.333,825.383,562.667,825.383,571C825.383,579.333,825.383,587.667,825.383,596C825.383,604.333,825.383,612.667,825.383,620.117C825.383,627.567,825.383,634.133,825.383,637.417L825.383,640.7"/><path marker-end="url(#my-svg_flowchart-pointEnd)" style="fill:none;" class="edge-thickness-normal edge-pattern-solid flowchart-link LS-minterPoly LE-tokenPoly" id="L-minterPoly-tokenPoly-0" d="M825.383,680L825.383,684.167C825.383,688.333,825.383,696.667,825.383,704.117C825.383,711.567,825.383,718.133,825.383,721.417L825.383,724.7"/><path marker-end="url(#my-svg_flowchart-pointEnd)" style="fill:none;" class="edge-thickness-normal edge-pattern-solid flowchart-link LS-shareArb LE-minterArb" id="L-shareArb-minterArb-0" d="M1122.063,546L1122.063,550.167C1122.063,554.333,1122.063,562.667,1122.063,571C1122.063,579.333,1122.063,587.667,1122.063,596C1122.063,604.333,1122.063,612.667,1122.063,620.117C1122.063,627.567,1122.063,634.133,1122.063,637.417L1122.063,640.7"/><path marker-end="url(#my-svg_flowchart-pointEnd)" style="fill:none;" class="edge-thickness-normal edge-pattern-solid flowchart-link LS-minterArb LE-tokenArb" id="L-minterArb-tokenArb-0" d="M1122.063,680L1122.063,684.167C1122.063,688.333,1122.063,696.667,1122.063,704.117C1122.063,711.567,1122.063,718.133,1122.063,721.417L1122.063,724.7"/><path marker-end="url(#my-svg_flowchart-pointEnd)" style="fill:none;" class="edge-thickness-normal edge-pattern-solid flowchart-link LS-shareOpt LE-minterOpt" id="L-shareOpt-minterOpt-0" d="M1426.016,546L1426.016,550.167C1426.016,554.333,1426.016,562.667,1426.016,571C1426.016,579.333,1426.016,587.667,1426.016,596C1426.016,604.333,1426.016,612.667,1426.016,620.117C1426.016,627.567,1426.016,634.133,1426.016,637.417L1426.016,640.7"/><path marker-end="url(#my-svg_flowchart-pointEnd)" style="fill:none;" class="edge-thickness-normal edge-pattern-solid flowchart-link LS-minterOpt LE-tokenOpt" id="L-minterOpt-tokenOpt-0" d="M1426.016,680L1426.016,684.167C1426.016,688.333,1426.016,696.667,1426.016,704.117C1426.016,711.567,1426.016,718.133,1426.016,721.417L1426.016,724.7"/><path marker-end="url(#my-svg_flowchart-pointEnd)" style="fill:none;" class="edge-thickness-normal edge-pattern-solid flowchart-link LS-lz LE-sharePoly" id="L-lz-sharePoly-0" d="M1032.07,402.167L997.622,407.972C963.174,413.778,894.279,425.389,859.831,435.361C825.383,445.333,825.383,453.667,825.383,462C825.383,470.333,825.383,478.667,825.383,486.117C825.383,493.567,825.383,500.133,825.383,503.417L825.383,506.7"/><path marker-end="url(#my-svg_flowchart-pointEnd)" style="fill:none;" class="edge-thickness-normal edge-pattern-solid flowchart-link LS-lz LE-shareArb" id="L-lz-shareArb-0" d="M1122.063,404L1122.063,409.5C1122.063,415,1122.063,426,1122.063,435.667C1122.063,445.333,1122.063,453.667,1122.063,462C1122.063,470.333,1122.063,478.667,1122.063,486.117C1122.063,493.567,1122.063,500.133,1122.063,503.417L1122.063,506.7"/><path marker-end="url(#my-svg_flowchart-pointEnd)" style="fill:none;" class="edge-thickness-normal edge-pattern-solid flowchart-link LS-lz LE-shareOpt" id="L-lz-shareOpt-0" d="M1212.055,401.804L1247.715,407.67C1283.375,413.536,1354.695,425.268,1390.355,435.301C1426.016,445.333,1426.016,453.667,1426.016,462C1426.016,470.333,1426.016,478.667,1426.016,486.117C1426.016,493.567,1426.016,500.133,1426.016,503.417L1426.016,506.7"/><path marker-end="url(#my-svg_flowchart-pointEnd)" style="fill:none;" class="edge-thickness-normal edge-pattern-solid flowchart-link LS-tokenPoly LE-userPoly" id="L-tokenPoly-userPoly-0" d="M825.383,764L825.383,768.167C825.383,772.333,825.383,780.667,825.383,789C825.383,797.333,825.383,805.667,825.383,814C825.383,822.333,825.383,830.667,825.383,838.117C825.383,845.567,825.383,852.133,825.383,855.417L825.383,858.7"/><path marker-end="url(#my-svg_flowchart-pointEnd)" style="fill:none;" class="edge-thickness-normal edge-pattern-solid flowchart-link LS-tokenArb LE-userArb" id="L-tokenArb-userArb-0" d="M1122.063,764L1122.063,768.167C1122.063,772.333,1122.063,780.667,1122.063,789C1122.063,797.333,1122.063,805.667,1122.063,814C1122.063,822.333,1122.063,830.667,1122.063,838.117C1122.063,845.567,1122.063,852.133,1122.063,855.417L1122.063,858.7"/><path marker-end="url(#my-svg_flowchart-pointEnd)" style="fill:none;" class="edge-thickness-normal edge-pattern-solid flowchart-link LS-tokenOpt LE-userOpt" id="L-tokenOpt-userOpt-0" d="M1426.016,764L1426.016,768.167C1426.016,772.333,1426.016,780.667,1426.016,789C1426.016,797.333,1426.016,805.667,1426.016,814C1426.016,822.333,1426.016,830.667,1426.016,838.117C1426.016,845.567,1426.016,852.133,1426.016,855.417L1426.016,858.7"/></g><g class="edgeLabels"><g class="edgeLabel"><g transform="translate(0, 0)" class="label"><rect height="0" width="0" ry="0" rx="0"/><text style=""><tspan class="row" x="0" dy="1em" xml:space="preserve"/></text></g></g><g class="edgeLabel"><g transform="translate(0, 0)" class="label"><rect height="0" width="0" ry="0" rx="0"/><text style=""><tspan class="row" x="0" dy="1em" xml:space="preserve"/></text></g></g><g class="edgeLabel"><g transform="translate(0, 0)" class="label"><rect height="0" width="0" ry="0" rx="0"/><text style=""><tspan class="row" x="0" dy="1em" xml:space="preserve"/></text></g></g><g class="edgeLabel"><g transform="translate(0, 0)" class="label"><rect height="0" width="0" ry="0" rx="0"/><text style=""><tspan class="row" x="0" dy="1em" xml:space="preserve"/></text></g></g><g class="edgeLabel"><g transform="translate(0, 0)" class="label"><rect height="0" width="0" ry="0" rx="0"/><text style=""><tspan class="row" x="0" dy="1em" xml:space="preserve"/></text></g></g><g class="edgeLabel"><g transform="translate(0, 0)" class="label"><rect height="0" width="0" ry="0" rx="0"/><text style=""><tspan class="row" x="0" dy="1em" xml:space="preserve"/></text></g></g><g transform="translate(250.73046875, 202.5)" class="edgeLabel"><g transform="translate(-49.203125, -9.5)" class="label"><rect height="18.105234146118164" width="98.22718811035156" ry="0" rx="0"/><text style=""><tspan class="row" x="0" dy="1em" xml:space="preserve">locks shares</tspan></text></g></g><g class="edgeLabel"><g transform="translate(0, 0)" class="label"><rect height="0" width="0" ry="0" rx="0"/><text style=""><tspan class="row" x="0" dy="1em" xml:space="preserve"/></text></g></g><g class="edgeLabel"><g transform="translate(0, 0)" class="label"><rect height="0" width="0" ry="0" rx="0"/><text style=""><tspan class="row" x="0" dy="1em" xml:space="preserve"/></text></g></g><g class="edgeLabel"><g transform="translate(0, 0)" class="label"><rect height="0" width="0" ry="0" rx="0"/><text style=""><tspan class="row" x="0" dy="1em" xml:space="preserve"/></text></g></g><g class="edgeLabel"><g transform="translate(0, 0)" class="label"><rect height="0" width="0" ry="0" rx="0"/><text style=""><tspan class="row" x="0" dy="1em" xml:space="preserve"/></text></g></g><g class="edgeLabel"><g transform="translate(0, 0)" class="label"><rect height="0" width="0" ry="0" rx="0"/><text style=""><tspan class="row" x="0" dy="1em" xml:space="preserve"/></text></g></g><g class="edgeLabel"><g transform="translate(0, 0)" class="label"><rect height="0" width="0" ry="0" rx="0"/><text style=""><tspan class="row" x="0" dy="1em" xml:space="preserve"/></text></g></g><g class="edgeLabel"><g transform="translate(0, 0)" class="label"><rect height="0" width="0" ry="0" rx="0"/><text style=""><tspan class="row" x="0" dy="1em" xml:space="preserve"/></text></g></g><g class="edgeLabel"><g transform="translate(0, 0)" class="label"><rect height="0" width="0" ry="0" rx="0"/><text style=""><tspan class="row" x="0" dy="1em" xml:space="preserve"/></text></g></g><g class="edgeLabel"><g transform="translate(0, 0)" class="label"><rect height="0" width="0" ry="0" rx="0"/><text style=""><tspan class="row" x="0" dy="1em" xml:space="preserve"/></text></g></g><g class="edgeLabel"><g transform="translate(0, 0)" class="label"><rect height="0" width="0" ry="0" rx="0"/><text style=""><tspan class="row" x="0" dy="1em" xml:space="preserve"/></text></g></g><g class="edgeLabel"><g transform="translate(0, 0)" class="label"><rect height="0" width="0" ry="0" rx="0"/><text style=""><tspan class="row" x="0" dy="1em" xml:space="preserve"/></text></g></g><g class="edgeLabel"><g transform="translate(0, 0)" class="label"><rect height="0" width="0" ry="0" rx="0"/><text style=""><tspan class="row" x="0" dy="1em" xml:space="preserve"/></text></g></g><g class="edgeLabel"><g transform="translate(0, 0)" class="label"><rect height="0" width="0" ry="0" rx="0"/><text style=""><tspan class="row" x="0" dy="1em" xml:space="preserve"/></text></g></g></g><g class="nodes"><g transform="translate(1426.015625, 747)" data-id="tokenOpt" data-node="true" id="flowchart-tokenOpt-24" class="node default default flowchart-label"><rect height="34" width="105.390625" y="-17" x="-52.6953125" ry="0" rx="0" style="" class="basic label-container"/><g transform="translate(0, -9.5)" style="" class="label"><rect/><text style=""><tspan class="row" x="0" dy="1em" xml:space="preserve">USDXToken</tspan></text></g></g><g transform="translate(1426.015625, 663)" data-id="minterOpt" data-node="true" id="flowchart-minterOpt-23" class="node default default flowchart-label"><rect height="34" width="160.296875" y="-17" x="-80.1484375" ry="0" rx="0" style="" class="basic label-container"/><g transform="translate(0, -9.5)" style="" class="label"><rect/><text style=""><tspan class="row" x="0" dy="1em" xml:space="preserve">USDXSpokeMinter</tspan></text></g></g><g transform="translate(1426.015625, 529)" data-id="shareOpt" data-node="true" id="flowchart-shareOpt-22" class="node default default flowchart-label"><rect height="34" width="137.8359375" y="-17" x="-68.91796875" ry="0" rx="0" style="" class="basic label-container"/><g transform="translate(0, -9.5)" style="" class="label"><rect/><text style=""><tspan class="row" x="0" dy="1em" xml:space="preserve">USDXShareOFT</tspan></text></g></g><g transform="translate(1122.0625, 747)" data-id="tokenArb" data-node="true" id="flowchart-tokenArb-21" class="node default default flowchart-label"><rect height="34" width="105.390625" y="-17" x="-52.6953125" ry="0" rx="0" style="" class="basic label-container"/><g transform="translate(0, -9.5)" style="" class="label"><rect/><text style=""><tspan class="row" x="0" dy="1em" xml:space="preserve">USDXToken</tspan></text></g></g><g transform="translate(1122.0625, 663)" data-id="minterArb" data-node="true" id="flowchart-minterArb-20" class="node default default flowchart-label"><rect height="34" width="160.296875" y="-17" x="-80.1484375" ry="0" rx="0" style="" class="basic label-container"/><g transform="translate(0, -9.5)" style="" class="label"><rect/><text style=""><tspan class="row" x="0" dy="1em" xml:space="preserve">USDXSpokeMinter</tspan></text></g></g><g transform="translate(1122.0625, 529)" data-id="shareArb" data-node="true" id="flowchart-shareArb-19" class="node default default flowchart-label"><rect height="34" width="137.8359375" y="-17" x="-68.91796875" ry="0" rx="0" style="" class="basic label-container"/><g transform="translate(0, -9.5)" style="" class="label"><rect/><text style=""><tspan class="row" x="0" dy="1em" xml:space="preserve">USDXShareOFT</tspan></text></g></g><g transform="translate(825.3828125, 747)" data-id="tokenPoly" data-node="true" id="flowchart-tokenPoly-18" class="node default default flowchart-label"><rect height="34" width="105.390625" y="-17" x="-52.6953125" ry="0" rx="0" style="" class="basic label-container"/><g transform="translate(0, -9.5)" style="" class="label"><rect/><text style=""><tspan class="row" x="0" dy="1em" xml:space="preserve">USDXToken</tspan></text></g></g><g transform="translate(825.3828125, 663)" data-id="minterPoly" data-node="true" id="flowchart-minterPoly-17" class="node default default flowchart-label"><rect height="34" width="160.296875" y="-17" x="-80.1484375" ry="0" rx="0" style="" class="basic label-container"/><g transform="translate(0, -9.5)" style="" class="label"><rect/><text style=""><tspan class="row" x="0" dy="1em" xml:space="preserve">USDXSpokeMinter</tspan></text></g></g><g transform="translate(825.3828125, 529)" data-id="sharePoly" data-node="true" id="flowchart-sharePoly-16" class="node default default flowchart-label"><rect height="34" width="137.8359375" y="-17" x="-68.91796875" ry="0" rx="0" style="" class="basic label-container"/><g transform="translate(0, -9.5)" style="" class="label"><rect/><text style=""><tspan class="row" x="0" dy="1em" xml:space="preserve">USDXShareOFT</tspan></text></g></g><g transform="translate(497.8828125, 387)" data-id="composer" data-node="true" id="flowchart-composer-9" class="node default default flowchart-label"><rect height="50" width="229.140625" y="-25" x="-114.5703125" ry="0" rx="0" style="" class="basic label-container"/><g transform="translate(0, -17.5)" style="" class="label"><rect/><text style=""><tspan class="row" x="0" dy="1em" xml:space="preserve">USDXVaultComposerSync</tspan><tspan class="row" x="0" dy="1em" xml:space="preserve">(Cross-Chain Orchestrator)</tspan></text></g></g><g transform="translate(507.8828125, 287)" data-id="adapter" data-node="true" id="flowchart-adapter-8" class="node default default flowchart-label"><rect height="50" width="200.265625" y="-25" x="-100.1328125" ry="0" rx="0" style="" class="basic label-container"/><g transform="translate(0, -17.5)" style="" class="label"><rect/><text style=""><tspan class="row" x="0" dy="1em" xml:space="preserve">USDXShareOFTAdapter</tspan><tspan class="row" x="0" dy="1em" xml:space="preserve">(Lockbox Model)</tspan></text></g></g><g transform="translate(497.8828125, 529)" data-id="tokenHub" data-node="true" id="flowchart-tokenHub-11" class="node default default flowchart-label"><rect height="34" width="154.25" y="-17" x="-77.125" ry="0" rx="0" style="" class="basic label-container"/><g transform="translate(0, -9.5)" style="" class="label"><rect/><text style=""><tspan class="row" x="0" dy="1em" xml:space="preserve">USDXToken (OFT)</tspan></text></g></g><g transform="translate(208.421875, 151)" data-id="vault" data-node="true" id="flowchart-vault-1" class="node default default flowchart-label"><rect height="34" width="100.515625" y="-17" x="-50.2578125" ry="0" rx="0" style="" class="basic label-container"/><g transform="translate(0, -9.5)" style="" class="label"><rect/><text style=""><tspan class="row" x="0" dy="1em" xml:space="preserve">USDXVault</tspan></text></g></g><g transform="translate(208.421875, 67)" data-id="user" data-node="true" id="flowchart-user-0" class="node default default flowchart-label"><rect height="34" width="101.921875" y="-17" x="-50.9609375" ry="0" rx="0" style="" class="basic label-container"/><g transform="translate(0, -9.5)" style="" class="label"><rect/><text style=""><tspan class="row" x="0" dy="1em" xml:space="preserve">User USDC</tspan></text></g></g><g transform="translate(173.8203125, 287)" data-id="wrapper" data-node="true" id="flowchart-wrapper-3" class="node default default flowchart-label"><rect height="50" width="212.890625" y="-25" x="-106.4453125" ry="0" rx="0" style="" class="basic label-container"/><g transform="translate(0, -17.5)" style="" class="label"><rect/><text style=""><tspan class="row" x="0" dy="1em" xml:space="preserve">USDXYearnVaultWrapper</tspan><tspan class="row" x="0" dy="1em" xml:space="preserve">(ERC-4626)</tspan></text></g></g><g transform="translate(173.8203125, 387)" data-id="yearn" data-node="true" id="flowchart-yearn-5" class="node default default flowchart-label"><rect height="34" width="155.640625" y="-17" x="-77.8203125" ry="0" rx="0" style="" class="basic label-container"/><g transform="translate(0, -9.5)" style="" class="label"><rect/><text style=""><tspan class="row" x="0" dy="1em" xml:space="preserve">Yearn USDC Vault</tspan></text></g></g><g transform="translate(173.8203125, 529)" data-id="yield" data-node="true" id="flowchart-yield-7" class="node default default flowchart-label"><rect height="34" width="237.640625" y="-17" x="-118.8203125" ry="0" rx="0" style="" class="basic label-container"/><g transform="translate(0, -9.5)" style="" class="label"><rect/><text style=""><tspan class="row" x="0" dy="1em" xml:space="preserve">Yield Accrues Automatically</tspan></text></g></g><g transform="translate(1122.0625, 387)" data-id="lz" data-node="true" id="flowchart-lz-15" class="node default default flowchart-label"><rect height="34" width="179.984375" y="-17" x="-89.9921875" ry="0" rx="0" style="" class="basic label-container"/><g transform="translate(0, -9.5)" style="" class="label"><rect/><text style=""><tspan class="row" x="0" dy="1em" xml:space="preserve">LayerZero Messages</tspan></text></g></g><g transform="translate(825.3828125, 881)" data-id="userPoly" data-node="true" id="flowchart-userPoly-32" class="node default default flowchart-label"><rect height="34" width="242.765625" y="-17" x="-121.3828125" ry="0" rx="0" style="" class="basic label-container"/><g transform="translate(0, -9.5)" style="" class="label"><rect/><text style=""><tspan class="row" x="0" dy="1em" xml:space="preserve">Users Mint USDX on Polygon</tspan></text></g></g><g transform="translate(1122.0625, 881)" data-id="userArb" data-node="true" id="flowchart-userArb-34" class="node default default flowchart-label"><rect height="34" width="250.59375" y="-17" x="-125.296875" ry="0" rx="0" style="" class="basic label-container"/><g transform="translate(0, -9.5)" style="" class="label"><rect/><text style=""><tspan class="row" x="0" dy="1em" xml:space="preserve">Users Mint USDX on Arbitrum</tspan></text></g></g><g transform="translate(1426.015625, 881)" data-id="userOpt" data-node="true" id="flowchart-userOpt-36" class="node default default flowchart-label"><rect height="34" width="257.3125" y="-17" x="-128.65625" ry="0" rx="0" style="" class="basic label-container"/><g transform="translate(0, -9.5)" style="" class="label"><rect/><text style=""><tspan class="row" x="0" dy="1em" xml:space="preserve">Users Mint USDX on Optimism</tspan></text></g></g></g></g></g></svg>