<svg aria-roledescription="flowchart-v2" role="graphics-document document" viewBox="-8 -8 356.265625 906" style="max-width: 356.266px; background-color: white;" xmlns:xlink="http://www.w3.org/1999/xlink" xmlns="http://www.w3.org/2000/svg" width="100%" id="my-svg"><style>#my-svg{font-family:"trebuchet ms",verdana,arial,sans-serif;font-size:16px;fill:#333;}#my-svg .error-icon{fill:#552222;}#my-svg .error-text{fill:#552222;stroke:#552222;}#my-svg .edge-thickness-normal{stroke-width:2px;}#my-svg .edge-thickness-thick{stroke-width:3.5px;}#my-svg .edge-pattern-solid{stroke-dasharray:0;}#my-svg .edge-pattern-dashed{stroke-dasharray:3;}#my-svg .edge-pattern-dotted{stroke-dasharray:2;}#my-svg .marker{fill:#333333;stroke:#333333;}#my-svg .marker.cross{stroke:#333333;}#my-svg svg{font-family:"trebuchet ms",verdana,arial,sans-serif;font-size:16px;}#my-svg .label{font-family:"trebuchet ms",verdana,arial,sans-serif;color:#333;}#my-svg .cluster-label text{fill:#333;}#my-svg .cluster-label span,#my-svg p{color:#333;}#my-svg .label text,#my-svg span,#my-svg p{fill:#333;color:#333;}#my-svg .node rect,#my-svg .node circle,#my-svg .node ellipse,#my-svg .node polygon,#my-svg .node path{fill:#ECECFF;stroke:#9370DB;stroke-width:1px;}#my-svg .flowchart-label text{text-anchor:middle;}#my-svg .node .katex path{fill:#000;stroke:#000;stroke-width:1px;}#my-svg .node .label{text-align:center;}#my-svg .node.clickable{cursor:pointer;}#my-svg .arrowheadPath{fill:#333333;}#my-svg .edgePath .path{stroke:#333333;stroke-width:2.0px;}#my-svg .flowchart-link{stroke:#333333;fill:none;}#my-svg .edgeLabel{background-color:#e8e8e8;text-align:center;}#my-svg .edgeLabel rect{opacity:0.5;background-color:#e8e8e8;fill:#e8e8e8;}#my-svg .labelBkg{background-color:rgba(232, 232, 232, 0.5);}#my-svg .cluster rect{fill:#ffffde;stroke:#aaaa33;stroke-width:1px;}#my-svg .cluster text{fill:#333;}#my-svg .cluster span,#my-svg p{color:#333;}#my-svg div.mermaidTooltip{position:absolute;text-align:center;max-width:200px;padding:2px;font-family:"trebuchet ms",verdana,arial,sans-serif;font-size:12px;background:hsl(80, 100%, 96.2745098039%);border:1px solid #aaaa33;border-radius:2px;pointer-events:none;z-index:100;}#my-svg .flowchartTitleText{text-anchor:middle;font-size:18px;fill:#333;}#my-svg :root{--mermaid-font-family:"trebuchet ms",verdana,arial,sans-serif;}</style><g><marker orient="auto" markerHeight="12" markerWidth="12" markerUnits="userSpaceOnUse" refY="5" refX="6" viewBox="0 0 10 10" class="marker flowchart" id="my-svg_flowchart-pointEnd"><path style="stroke-width: 1; stroke-dasharray: 1, 0;" class="arrowMarkerPath" d="M 0 0 L 10 5 L 0 10 z"/></marker><marker orient="auto" markerHeight="12" markerWidth="12" markerUnits="userSpaceOnUse" refY="5" refX="4.5" viewBox="0 0 10 10" class="marker flowchart" id="my-svg_flowchart-pointStart"><path style="stroke-width: 1; stroke-dasharray: 1, 0;" class="arrowMarkerPath" d="M 0 5 L 10 10 L 10 0 z"/></marker><marker orient="auto" markerHeight="11" markerWidth="11" markerUnits="userSpaceOnUse" refY="5" refX="11" viewBox="0 0 10 10" class="marker flowchart" id="my-svg_flowchart-circleEnd"><circle style="stroke-width: 1; stroke-dasharray: 1, 0;" class="arrowMarkerPath" r="5" cy="5" cx="5"/></marker><marker orient="auto" markerHeight="11" markerWidth="11" markerUnits="userSpaceOnUse" refY="5" refX="-1" viewBox="0 0 10 10" class="marker flowchart" id="my-svg_flowchart-circleStart"><circle style="stroke-width: 1; stroke-dasharray: 1, 0;" class="arrowMarkerPath" r="5" cy="5" cx="5"/></marker><marker orient="auto" markerHeight="11" markerWidth="11" markerUnits="userSpaceOnUse" refY="5.2" refX="12" viewBox="0 0 11 11" class="marker cross flowchart" id="my-svg_flowchart-crossEnd"><path style="stroke-width: 2; stroke-dasharray: 1, 0;" class="arrowMarkerPath" d="M 1,1 l 9,9 M 10,1 l -9,9"/></marker><marker orient="auto" markerHeight="11" markerWidth="11" markerUnits="userSpaceOnUse" refY="5.2" refX="-1" viewBox="0 0 11 11" class="marker cross flowchart" id="my-svg_flowchart-crossStart"><path style="stroke-width: 2; stroke-dasharray: 1, 0;" class="arrowMarkerPath" d="M 1,1 l 9,9 M 10,1 l -9,9"/></marker><g class="root"><g class="clusters"/><g class="edgePaths"><path marker-end="url(#my-svg_flowchart-pointEnd)" style="fill:none;" class="edge-thickness-normal edge-pattern-solid flowchart-link LS-spokeA LE-bridge" id="L-spokeA-bridge-0" d="M170.133,34L170.133,38.167C170.133,42.333,170.133,50.667,170.133,58.117C170.133,65.567,170.133,72.133,170.133,75.417L170.133,78.7"/><path marker-end="url(#my-svg_flowchart-pointEnd)" style="fill:none;" class="edge-thickness-normal edge-pattern-solid flowchart-link LS-bridge LE-hubArrival" id="L-bridge-hubArrival-0" d="M170.133,118L170.133,122.167C170.133,126.333,170.133,134.667,170.133,142.117C170.133,149.567,170.133,156.133,170.133,159.417L170.133,162.7"/><path marker-end="url(#my-svg_flowchart-pointEnd)" style="fill:none;" class="edge-thickness-normal edge-pattern-solid flowchart-link LS-hubArrival LE-deposit" id="L-hubArrival-deposit-0" d="M170.133,202L170.133,206.167C170.133,210.333,170.133,218.667,170.133,226.117C170.133,233.567,170.133,240.133,170.133,243.417L170.133,246.7"/><path marker-end="url(#my-svg_flowchart-pointEnd)" style="fill:none;" class="edge-thickness-normal edge-pattern-solid flowchart-link LS-deposit LE-ovault" id="L-deposit-ovault-0" d="M170.133,286L170.133,290.167C170.133,294.333,170.133,302.667,170.133,310.117C170.133,317.567,170.133,324.133,170.133,327.417L170.133,330.7"/><path marker-end="url(#my-svg_flowchart-pointEnd)" style="fill:none;" class="edge-thickness-normal edge-pattern-solid flowchart-link LS-ovault LE-yearn" id="L-ovault-yearn-0" d="M170.133,370L170.133,374.167C170.133,378.333,170.133,386.667,170.133,394.117C170.133,401.567,170.133,408.133,170.133,411.417L170.133,414.7"/><path marker-end="url(#my-svg_flowchart-pointEnd)" style="fill:none;" class="edge-thickness-normal edge-pattern-solid flowchart-link LS-yearn LE-position" id="L-yearn-position-0" d="M170.133,470L170.133,474.167C170.133,478.333,170.133,486.667,170.133,494.117C170.133,501.567,170.133,508.133,170.133,511.417L170.133,514.7"/><path marker-end="url(#my-svg_flowchart-pointEnd)" style="fill:none;" class="edge-thickness-normal edge-pattern-solid flowchart-link LS-position LE-mint" id="L-position-mint-0" d="M170.133,554L170.133,558.167C170.133,562.333,170.133,570.667,170.133,578.117C170.133,585.567,170.133,592.133,170.133,595.417L170.133,598.7"/><path marker-end="url(#my-svg_flowchart-pointEnd)" style="fill:none;" class="edge-thickness-normal edge-pattern-solid flowchart-link LS-mint LE-minter" id="L-mint-minter-0" d="M170.133,638L170.133,642.167C170.133,646.333,170.133,654.667,170.133,662.117C170.133,669.567,170.133,676.133,170.133,679.417L170.133,682.7"/><path marker-end="url(#my-svg_flowchart-pointEnd)" style="fill:none;" class="edge-thickness-normal edge-pattern-solid flowchart-link LS-minter LE-usdxtoken" id="L-minter-usdxtoken-0" d="M170.133,722L170.133,726.167C170.133,730.333,170.133,738.667,170.133,746.117C170.133,753.567,170.133,760.133,170.133,763.417L170.133,766.7"/><path marker-end="url(#my-svg_flowchart-pointEnd)" style="fill:none;" class="edge-thickness-normal edge-pattern-solid flowchart-link LS-usdxtoken LE-userB" id="L-usdxtoken-userB-0" d="M170.133,806L170.133,810.167C170.133,814.333,170.133,822.667,170.133,830.117C170.133,837.567,170.133,844.133,170.133,847.417L170.133,850.7"/></g><g class="edgeLabels"><g class="edgeLabel"><g transform="translate(0, 0)" class="label"><rect height="0" width="0" ry="0" rx="0"/><text style=""><tspan class="row" x="0" dy="1em" xml:space="preserve"/></text></g></g><g class="edgeLabel"><g transform="translate(0, 0)" class="label"><rect height="0" width="0" ry="0" rx="0"/><text style=""><tspan class="row" x="0" dy="1em" xml:space="preserve"/></text></g></g><g class="edgeLabel"><g transform="translate(0, 0)" class="label"><rect height="0" width="0" ry="0" rx="0"/><text style=""><tspan class="row" x="0" dy="1em" xml:space="preserve"/></text></g></g><g class="edgeLabel"><g transform="translate(0, 0)" class="label"><rect height="0" width="0" ry="0" rx="0"/><text style=""><tspan class="row" x="0" dy="1em" xml:space="preserve"/></text></g></g><g class="edgeLabel"><g transform="translate(0, 0)" class="label"><rect height="0" width="0" ry="0" rx="0"/><text style=""><tspan class="row" x="0" dy="1em" xml:space="preserve"/></text></g></g><g class="edgeLabel"><g transform="translate(0, 0)" class="label"><rect height="0" width="0" ry="0" rx="0"/><text style=""><tspan class="row" x="0" dy="1em" xml:space="preserve"/></text></g></g><g class="edgeLabel"><g transform="translate(0, 0)" class="label"><rect height="0" width="0" ry="0" rx="0"/><text style=""><tspan class="row" x="0" dy="1em" xml:space="preserve"/></text></g></g><g class="edgeLabel"><g transform="translate(0, 0)" class="label"><rect height="0" width="0" ry="0" rx="0"/><text style=""><tspan class="row" x="0" dy="1em" xml:space="preserve"/></text></g></g><g class="edgeLabel"><g transform="translate(0, 0)" class="label"><rect height="0" width="0" ry="0" rx="0"/><text style=""><tspan class="row" x="0" dy="1em" xml:space="preserve"/></text></g></g><g class="edgeLabel"><g transform="translate(0, 0)" class="label"><rect height="0" width="0" ry="0" rx="0"/><text style=""><tspan class="row" x="0" dy="1em" xml:space="preserve"/></text></g></g></g><g class="nodes"><g transform="translate(170.1328125, 17)" data-id="spokeA" data-node="true" id="flowchart-spokeA-0" class="node default default flowchart-label"><rect height="34" width="130.515625" y="-17" x="-65.2578125" ry="0" rx="0" style="" class="basic label-container"/><g transform="translate(0, -9.5)" style="" class="label"><rect/><text style=""><tspan class="row" x="0" dy="1em" xml:space="preserve">Spoke Chain A</tspan></text></g></g><g transform="translate(170.1328125, 101)" data-id="bridge" data-node="true" id="flowchart-bridge-1" class="node default default flowchart-label"><rect height="34" width="308.859375" y="-17" x="-154.4296875" ry="0" rx="0" style="" class="basic label-container"/><g transform="translate(0, -9.5)" style="" class="label"><rect/><text style=""><tspan class="row" x="0" dy="1em" xml:space="preserve">1. Bridge USDC to Hub via Bridge Kit</tspan></text></g></g><g transform="translate(170.1328125, 185)" data-id="hubArrival" data-node="true" id="flowchart-hubArrival-3" class="node default default flowchart-label"><rect height="34" width="298.734375" y="-17" x="-149.3671875" ry="0" rx="0" style="" class="basic label-container"/><g transform="translate(0, -9.5)" style="" class="label"><rect/><text style=""><tspan class="row" x="0" dy="1em" xml:space="preserve">2. USDC arrives on Hub (Ethereum)</tspan></text></g></g><g transform="translate(170.1328125, 269)" data-id="deposit" data-node="true" id="flowchart-deposit-5" class="node default default flowchart-label"><rect height="34" width="340.265625" y="-17" x="-170.1328125" ry="0" rx="0" style="" class="basic label-container"/><g transform="translate(0, -9.5)" style="" class="label"><rect/><text style=""><tspan class="row" x="0" dy="1em" xml:space="preserve">3. depositUSDC(amount) into USDXVault</tspan></text></g></g><g transform="translate(170.1328125, 353)" data-id="ovault" data-node="true" id="flowchart-ovault-7" class="node default default flowchart-label"><rect height="34" width="201.5625" y="-17" x="-100.78125" ry="0" rx="0" style="" class="basic label-container"/><g transform="translate(0, -9.5)" style="" class="label"><rect/><text style=""><tspan class="row" x="0" dy="1em" xml:space="preserve">4. OVault / Yield Routes</tspan></text></g></g><g transform="translate(170.1328125, 445)" data-id="yearn" data-node="true" id="flowchart-yearn-9" class="node default default flowchart-label"><rect height="50" width="174.984375" y="-25" x="-87.4921875" ry="0" rx="0" style="" class="basic label-container"/><g transform="translate(0, -17.5)" style="" class="label"><rect/><text style=""><tspan class="row" x="0" dy="1em" xml:space="preserve">5. Yearn USDC Vault</tspan><tspan class="row" x="0" dy="1em" xml:space="preserve">Yield accrues</tspan></text></g></g><g transform="translate(170.1328125, 537)" data-id="position" data-node="true" id="flowchart-position-11" class="node default default flowchart-label"><rect height="34" width="246" y="-17" x="-123" ry="0" rx="0" style="" class="basic label-container"/><g transform="translate(0, -9.5)" style="" class="label"><rect/><text style=""><tspan class="row" x="0" dy="1em" xml:space="preserve">6. User holds OVault position</tspan></text></g></g><g transform="translate(170.1328125, 621)" data-id="mint" data-node="true" id="flowchart-mint-13" class="node default default flowchart-label"><rect height="34" width="317.515625" y="-17" x="-158.7578125" ry="0" rx="0" style="" class="basic label-container"/><g transform="translate(0, -9.5)" style="" class="label"><rect/><text style=""><tspan class="row" x="0" dy="1em" xml:space="preserve">7. User mints USDX on Spoke Chain B</tspan></text></g></g><g transform="translate(170.1328125, 705)" data-id="minter" data-node="true" id="flowchart-minter-15" class="node default default flowchart-label"><rect height="34" width="327.546875" y="-17" x="-163.7734375" ry="0" rx="0" style="" class="basic label-container"/><g transform="translate(0, -9.5)" style="" class="label"><rect/><text style=""><tspan class="row" x="0" dy="1em" xml:space="preserve">USDXSpokeMinter verifies hub position</tspan></text></g></g><g transform="translate(170.1328125, 789)" data-id="usdxtoken" data-node="true" id="flowchart-usdxtoken-17" class="node default default flowchart-label"><rect height="34" width="187.671875" y="-17" x="-93.8359375" ry="0" rx="0" style="" class="basic label-container"/><g transform="translate(0, -9.5)" style="" class="label"><rect/><text style=""><tspan class="row" x="0" dy="1em" xml:space="preserve">USDXToken (Spoke B)</tspan></text></g></g><g transform="translate(170.1328125, 873)" data-id="userB" data-node="true" id="flowchart-userB-19" class="node default default flowchart-label"><rect height="34" width="268.40625" y="-17" x="-134.203125" ry="0" rx="0" style="" class="basic label-container"/><g transform="translate(0, -9.5)" style="" class="label"><rect/><text style=""><tspan class="row" x="0" dy="1em" xml:space="preserve">User receives USDX on Spoke B</tspan></text></g></g></g></g></g></svg>